<?xml version="1.0" encoding="utf-8"?>
<svg viewBox="0 0 500 500" xmlns="http://www.w3.org/2000/svg">
  <defs>
    <linearGradient id="gradient-3" gradientUnits="userSpaceOnUse" x1="250" y1="0" x2="250" y2="500" spreadMethod="pad">
      <stop offset="0" style="stop-color: rgb(247, 191, 44);"/>
      <stop offset="1" style="stop-color: rgb(205, 94, 41);"/>
    </linearGradient>
    <linearGradient id="gradient-1" gradientUnits="userSpaceOnUse" x1="250" y1="20" x2="250" y2="480" gradientTransform="matrix(1.0031068618357177, 0, 0, 1.0031068774714225, -0.7766979417722695, -1.4913391080554845)">
      <stop style="stop-color: rgb(255, 253, 90);" offset="0"/>
      <stop style="stop-color: rgb(227, 140, 43);" offset="1"/>
    </linearGradient>
    <linearGradient id="gradient-2" gradientUnits="userSpaceOnUse" x1="250" y1="20" x2="250" y2="480">
      <stop style="stop-color: rgb(255, 253, 90);" offset="0"/>
      <stop style="stop-color: rgb(227, 140, 43);" offset="1"/>
    </linearGradient>
    <linearGradient id="gradient-4" gradientUnits="userSpaceOnUse" x1="253.44439697265625" y1="238.4842529296875" x2="253.44439697265625" y2="480">
      <stop style="stop-color: rgb(247, 192, 40);" offset="0"/>
      <stop style="stop-color: rgb(227, 140, 43);" offset="1"/>
    </linearGradient>
    <linearGradient id="gradient-5" gradientUnits="userSpaceOnUse" x1="250" y1="80" x2="250" y2="420">
      <stop style="stop-color: rgb(255, 255, 255);" offset="0"/>
      <stop style="stop-color: rgb(204, 204, 204);" offset="1"/>
    </linearGradient>
    <radialGradient id="gradient-6" gradientUnits="userSpaceOnUse" cx="255.1620635986328" cy="260.2457580566406" r="170" gradientTransform="matrix(1.1626436932369086, 0, 0, 1.162643413775678, -41.65732727667786, -42.562495305302434)">
      <stop style="stop-color: rgb(248, 237, 51);" offset="0"/>
      <stop offset="0.6244" style="stop-color: rgb(248, 237, 51);"/>
      <stop offset="0.7638" style="stop-color: rgb(239, 213, 43);"/>
      <stop offset="0.8931" style="stop-color: rgb(218, 157, 24);"/>
      <stop style="stop-color: rgb(191, 80, 0);" offset="1"/>
    </radialGradient>
    <linearGradient id="gradient-7" gradientUnits="userSpaceOnUse" x1="-277.8105010986328" y1="561.8806762695312" x2="-277.8105010986328" y2="796.8161010742188" gradientTransform="matrix(0.6693761492701567, -0.07372995093502983, 0.07372975608843645, 0.6693762466934533, 391.9234250134925, 247.7612281045386)">
      <stop style="stop-color: rgb(255, 190, 0);" offset="0"/>
      <stop style="stop-color: rgb(214, 120, 32);" offset="1"/>
    </linearGradient>
    <linearGradient id="gradient-7-2" gradientUnits="userSpaceOnUse" x1="-277.8105010986328" y1="561.8806762695312" x2="-277.8105010986328" y2="796.8161010742188" gradientTransform="matrix(0.3598424288589108, 0.0014199120748252486, -0.0008651188746076439, 0.21927866751948855, -159.19165838772352, 375.4938512765719)">
      <stop style="stop-color: rgb(255, 190, 0);" offset="0"/>
      <stop style="stop-color: rgb(214, 120, 32);" offset="1"/>
    </linearGradient>
    <linearGradient id="gradient-8" gradientUnits="userSpaceOnUse" x1="545" y1="360" x2="545" y2="375">
      <stop style="stop-color: rgb(211, 205, 32);" offset="0"/>
      <stop style="stop-color: rgb(122, 118, 18);" offset="1"/>
    </linearGradient>
    <linearGradient id="gradient-9" gradientUnits="userSpaceOnUse" x1="-277.8105010986328" y1="561.8806762695312" x2="-277.8105010986328" y2="796.8161010742188">
      <stop style="stop-color: rgb(255, 236, 46);" offset="0"/>
      <stop style="stop-color: rgb(254, 189, 1);" offset="1"/>
    </linearGradient>
    <linearGradient id="gradient-10" gradientUnits="userSpaceOnUse" x1="545" y1="360" x2="545" y2="375">
      <stop style="stop-color: rgb(211, 205, 32);" offset="0"/>
      <stop style="stop-color: rgb(122, 118, 18);" offset="1"/>
    </linearGradient>
    <linearGradient id="gradient-11" gradientUnits="userSpaceOnUse" x1="-277.8105010986328" y1="561.8806762695312" x2="-277.8105010986328" y2="796.8161010742188" gradientTransform="matrix(0.6034087242432288, 0, 0, 0.6034087242432288, -110.17721499783198, 316.01031406856083)">
      <stop style="stop-color: rgb(255, 190, 0);" offset="0"/>
      <stop style="stop-color: rgb(214, 120, 32);" offset="1"/>
    </linearGradient>
    <radialGradient id="gradient-12" gradientUnits="userSpaceOnUse" cx="-314.4753112792969" cy="611.8270263671875" r="126.30323791503906" gradientTransform="matrix(1.1160329276951277, 0, 0, 1.1160334249562183, 24.30159432705809, -88.79756113141326)">
      <stop style="stop-color: rgb(255, 237, 49);" offset="0"/>
      <stop style="stop-color: rgba(255, 237, 49, 0);" offset="1"/>
    </radialGradient>
    <linearGradient id="gradient-13" gradientUnits="userSpaceOnUse" x1="250" y1="20" x2="250" y2="480" gradientTransform="matrix(1.0031068618357177, 0, 0, 1.0031068774714225, -0.7766979417722695, -1.4913391080554845)">
      <stop style="stop-color: rgb(255, 253, 90);" offset="0"/>
      <stop style="stop-color: rgb(227, 140, 43);" offset="1"/>
    </linearGradient>
    <linearGradient id="gradient-14" gradientUnits="userSpaceOnUse" x1="-277.8105010986328" y1="561.8806762695312" x2="-277.8105010986328" y2="796.8161010742188" gradientTransform="matrix(0.6034087242432288, 0, 0, 0.6034087242432288, -110.17721499783198, 316.01031406856083)">
      <stop style="stop-color: rgb(255, 190, 0);" offset="0"/>
      <stop style="stop-color: rgb(214, 120, 32);" offset="1"/>
    </linearGradient>
    <linearGradient id="gradient-15" gradientUnits="userSpaceOnUse" x1="-277.8105010986328" y1="561.8806762695312" x2="-277.8105010986328" y2="796.8161010742188" gradientTransform="matrix(0.3598424288589108, 0.0014199120748252486, -0.0008651188746076439, 0.21927866751948855, -159.19165838772352, 375.4938512765719)">
      <stop style="stop-color: rgb(255, 190, 0);" offset="0"/>
      <stop style="stop-color: rgb(214, 120, 32);" offset="1"/>
    </linearGradient>
    <radialGradient id="gradient-16" gradientUnits="userSpaceOnUse" cx="634" cy="196" r="93" gradientTransform="matrix(3.5442367061491935, 3.2814600134408605e-7, -0.0000013125840053763442, 3.6047992501207577, -1109.6003798618112, -416.64352220104587)">
      <stop style="stop-color: rgb(255, 255, 255);" offset="0"/>
      <stop style="stop-color: rgba(255, 255, 255, 0);" offset="1"/>
    </radialGradient>
    <radialGradient id="gradient-17" gradientUnits="userSpaceOnUse" cx="634" cy="196" r="93" gradientTransform="matrix(0.7126241704469086, 3.2814600134408605e-7, 0.0000013125840053763442, 0.7248008481917843, 685.6403546076949, 147.83616457703292)">
      <stop style="stop-color: rgb(255, 255, 255);" offset="0"/>
      <stop style="stop-color: rgba(255, 255, 255, 0);" offset="1"/>
    </radialGradient>
    <linearGradient id="gradient-18" gradientUnits="userSpaceOnUse" x1="-277.8105010986328" y1="561.8806762695312" x2="-277.8105010986328" y2="796.8161010742188" gradientTransform="matrix(0.3598424288589108, 0.0014199120748252486, -0.0008651188746076439, 0.21927866751948855, -159.19165838772352, 375.4938512765719)">
      <stop style="stop-color: rgb(255, 190, 0);" offset="0"/>
      <stop style="stop-color: rgb(214, 120, 32);" offset="1"/>
    </linearGradient>
    <linearGradient id="gradient-19" gradientUnits="userSpaceOnUse" x1="-255.98308563232422" y1="500.7257080078125" x2="-255.98308563232422" y2="551.216552734375" gradientTransform="matrix(0.9721816590550286, -0.23422891971152335, 0.10362082679554471, 0.43008454599742274, -64.23853990222898, 254.188188506241)">
      <stop style="stop-color: rgb(255, 237, 49);" offset="0"/>
      <stop style="stop-color: rgba(255, 237, 49, 0);" offset="1"/>
    </linearGradient>
    <radialGradient id="gradient-20" gradientUnits="userSpaceOnUse" cx="-283.0146484375" cy="510.7113952636719" r="55.76831817626953" gradientTransform="matrix(0.6625576282626338, -0.5531133047923916, 1.2298754256288325, 1.4732364008060554, -723.6123845453899, -398.2264071794646)">
      <stop style="stop-color: rgb(255, 237, 49);" offset="0"/>
      <stop style="stop-color: rgba(255, 237, 49, 0);" offset="1"/>
    </radialGradient>
    <linearGradient id="gradient-21" gradientUnits="userSpaceOnUse" x1="-272.5911560058594" y1="544.911376953125" x2="-272.5911560058594" y2="807.1071166992188">
      <stop style="stop-color: rgb(246, 189, 44);" offset="0"/>
      <stop style="stop-color: rgb(191, 144, 26);" offset="1"/>
    </linearGradient>
    <linearGradient id="gradient-22" gradientUnits="userSpaceOnUse" x1="-254.775146484375" y1="499.4190673828125" x2="-254.775146484375" y2="577.36083984375">
      <stop style="stop-color: rgb(246, 189, 44);" offset="0"/>
      <stop style="stop-color: rgb(191, 144, 26);" offset="1"/>
    </linearGradient>
  </defs>
  <ellipse cx="250" cy="250" rx="250" ry="250" style="fill: url(#gradient-3);"/>
  <ellipse cx="250" cy="250" rx="230" ry="230" style="fill: url(#gradient-1);"/>
  <path style="fill: url(#gradient-4);" d="M50.81416,365c41.08554,71.16226 117.01476,115 199.18584,115c138.41109,0 236.24639,-117.13225 230.06604,-241.51574c-80.0411,33.05709 -176.08731,52.67754 -282.62671,52.67754c-61.19342,0 -120.87589,-6.87343 -176.79694,-19.77869c2.96218,31.51932 12.67787,63.31656 30.17177,93.61688z"/>
  <ellipse cx="250" cy="250" rx="170" ry="170" style="fill: url(#gradient-6); fill-opacity: 1;"/>
  <g id="glibre">
    <g id="macron" transform="matrix(0.8414844870567323, 0, 0, 0.8414844870567323, 466.02239990234375, -317.1852722167969)">
      <path class="shadow" d="M -198.07891845703125 530.1440734863281 L -194.27288818359375 545.8901977539062 C -206.13536071777344 561.0767822265625 -219.18111437391306 568.8372878356159 -241.03024291992188 570.7368774414062 C -263.55621337890625 572.6953125 -290.6890869140625 569.7662963867188 -306.7577819824219 547.8799438476562 C -310.1243896484375 530.2078857421875 -311.372802734375 522.7608032226562 -311.372802734375 522.7608032226562 C -311.372802734375 522.7608032226562 -266.69651794433594 527.0515747070312 -252.45257568359375 525.4826049804688 C -240.829833984375 524.202392578125 -204.33926391601562 538.2872009277344 -198.07891845703125 530.1440734863281 Z " style="fill: url(#gradient-22); fill-opacity: 0.49;" transform="matrix(1.0000000000000002, 0, 0, 1.0000000000000002, 0, -23.76752082315636)"/>
      <path class="depth" d="M -202.59629821777344 516.2670593261719 L -200.2147674560547 522.2083129882812 C -211.14907836914062 536.2066650390625 -227.52011108398438 546.26318359375 -247.61410522460938 548.4764404296875 C -272.4909973144531 551.216552734375 -296.9399719238281 540.476806640625 -311.75140380859375 520.3029174804688 C -313.5248107910156 515.834716796875 -314.11236572265625 514.4194641113281 -314.11236572265625 514.4194641113281 C -314.11236572265625 514.4194641113281 -264.3653564453125 517.041259765625 -251.2359161376953 515.5950927734375 C -240.5225830078125 514.4150390625 -208.3668212890625 523.7730407714844 -202.59629821777344 516.2670593261719 Z " style="fill: rgb(191, 80, 0);" transform="matrix(1, 0, 0, 1, 2.376751661300659, -15.448883620706795)"/>
      <path class="main" d="M -226.04393005371094 501.504638671875 L -200.2147674560547 522.2083129882812 C -211.14907836914062 536.2066650390625 -227.52011108398438 546.26318359375 -247.61410522460938 548.4764404296875 C -272.4909973144531 551.216552734375 -296.9399719238281 540.476806640625 -311.75140380859375 520.3029174804688 C -297.8028564453125 509.72064208984375 -300.5026550292969 512.0447998046875 -285.0860595703125 500.7257080078125 C -277.26898193359375 511.3730773925781 -264.3653564453125 517.041259765625 -251.2359161376953 515.5950927734375 C -240.5225830078125 514.4150390625 -231.814453125 509.0106201171875 -226.04393005371094 501.504638671875 Z " style="fill: url(#gradient-7-2);" transform="matrix(1, 0, 0, 1, 8.722895472601522e-8, -21.39076670786494)"/>
      <path class="gold-layer" d="M -226.04393005371094 501.504638671875 L -200.2147674560547 522.2083129882812 C -211.14907836914062 536.2066650390625 -227.52011108398438 546.26318359375 -247.61410522460938 548.4764404296875 C -272.4909973144531 551.216552734375 -291.1310119628906 536.9268798828125 -305.94244384765625 516.7529907226562 C -291.993896484375 506.17071533203125 -300.5026550292969 512.0447998046875 -285.0860595703125 500.7257080078125 C -277.26898193359375 511.3730773925781 -264.3653564453125 517.041259765625 -251.2359161376953 515.5950927734375 C -240.5225830078125 514.4150390625 -231.814453125 509.0106201171875 -226.04393005371094 501.504638671875 Z " style="fill: url(#gradient-20);" transform="matrix(1, 0, 0, 1, 0, -21.390768667594557)"/>
      <path class="edge" d="M -284.8472900390625 479.96441650390625 C -264.3670959472656 499.9115295410156 -240.0164031982422 494.5815734863281 -226.055419921875 480.1766357421875 C -225.64569091796875 480.5018005371094 -223.4227752685547 482.1520080566406 -222.86207580566406 482.65350341796875 C -241.43698120117188 497.3275451660156 -267.3111572265625 502.5315856933594 -284.8472900390625 479.96441650390625 Z " style="stroke: none; fill: rgb(255, 255, 255);"/>
    </g>
    <g id="G" transform="matrix(0.8414844870567323, 0, 0, 0.8414844870567323, 466.02239990234375, -317.1852722167969)">
      <path class="G shadow" d="M -231.25119018554688 697.4671630859375 L -145.43577575683594 654.5354614257812 L -139.4804229736328 698.4963989257812 L -139.4804229736328 792.3257446289062 L -163.85057067871094 767.95556640625 C -187.0584716796875 791.7545166015625 -219.57203674316406 807.1071166992188 -257.4039001464844 807.1071166992188 C -304.2406921386719 807.1071166992188 -347.5196533203125 782.119873046875 -370.9380187988281 741.55810546875 C -385.0118408203125 717.1815185546875 -393.85595703125 672.889892578125 -397.2654724121094 646.9841918945312 C -405.70189815867235 582.8837272194789 -330.17547607421875 544.911376953125 -257.4039001464844 544.911376953125 C -236.36082458496094 544.911376953125 -151.81651306152344 565.3455200195312 -151.81651306152344 565.3455200195312 C -151.81651306152344 565.3455200195312 -147.85987854003906 584.044921875 -145.71006774902344 609.4464111328125 L -199.70428466796875 638.954345703125 C -212.39840698242188 619.2657470703125 -233.82334899902344 606.8186645507812 -257.4039001464844 606.8186645507812 C -310.6667785644531 606.8186645507812 -343.9560546875 664.4774169921875 -317.32452392578125 710.6044311523438 C -304.9649353027344 732.0121459960938 -282.123291015625 745.1998291015625 -257.4039001464844 745.1998291015625 C -237.23342895507812 745.1998291015625 -217.86883544921875 735.0439453125 -205.59674072265625 722.263916015625 L -231.25119018554688 697.4671630859375 Z " style="fill: url(#gradient-21); fill-opacity: 0.5;" transform="matrix(1.0000000000000002, 0, 0, 1.0000000000000002, 13.072136489359082, 46.346656799316406)"/>
      <path class="G depth" d="M -231.25119018554688 697.4671630859375 L -145.3538055419922 691.9776611328125 L -139.4804229736328 698.4963989257812 L -139.4804229736328 792.3257446289062 L -163.85057067871094 767.95556640625 C -187.0584716796875 791.7545166015625 -219.57203674316406 807.1071166992188 -257.4039001464844 807.1071166992188 C -304.2406921386719 807.1071166992188 -347.5196533203125 782.119873046875 -370.9380187988281 741.55810546875 C -421.3976135253906 654.1594848632812 -358.32318115234375 544.911376953125 -257.4039001464844 544.911376953125 C -211.04515075683594 544.911376953125 -169.28904724121094 569.6143188476562 -145.71006774902344 609.4464111328125 L -199.70428466796875 638.954345703125 C -212.39840698242188 619.2657470703125 -233.82334899902344 606.8186645507812 -257.4039001464844 606.8186645507812 C -310.6667785644531 606.8186645507812 -343.9560546875 664.4774169921875 -317.32452392578125 710.6044311523438 C -304.9649353027344 732.0121459960938 -282.123291015625 745.1998291015625 -257.4039001464844 745.1998291015625 C -237.23342895507812 745.1998291015625 -217.86883544921875 735.0439453125 -205.59674072265625 722.263916015625 L -231.25119018554688 697.4671630859375 Z " style="fill: rgb(191, 80, 0);" transform="matrix(1, 0, 0, 1, 7.130256088765918, 2.3767521381377605)"/>
      <path class="G main" d="M -238.61480712890625 691.8650512695312 L -144.78549194335938 691.8650512695312 L -144.78549194335938 785.6943969726562 L -169.1556396484375 761.32421875 C -192.36354064941406 785.1231689453125 -224.87710571289062 800.4757690429688 -262.7089538574219 800.4757690429688 C -309.5457763671875 800.4757690429688 -352.8247375488281 775.488525390625 -376.24310302734375 734.9267578125 C -426.70269775390625 647.5281372070312 -363.62823486328125 538.2800903320312 -262.7089538574219 538.2800903320312 C -216.3502197265625 538.2800903320312 -173.47718811035156 562.7596435546875 -149.898193359375 602.5917358398438 L -204.5625762939453 631.876220703125 C -217.25669860839844 612.1876220703125 -239.12841796875 600.1873168945312 -262.7089538574219 600.1873168945312 C -315.9718322753906 600.1873168945312 -349.2611083984375 657.8460693359375 -322.6296081542969 703.9730834960938 C -310.2699890136719 725.3807983398438 -287.4283752441406 738.5684814453125 -262.7089538574219 738.5684814453125 C -242.5384979248047 738.5684814453125 -225.2324676513672 730.2996215820312 -212.9603729248047 717.5194702148438 Z " style="fill: url(#gradient-7);" transform="matrix(1, 0, 0, 1, 7.130256088765918, 2.3767521381377605)"/>
      <path class="G gold-layer" d="M -332.6200256347656 704.9721069335938 C -320.1494445800781 726.3154907226562 -343.8333435058594 770.9927978515625 -367.251708984375 730.4309692382812 C -417.7113342285156 643.0324096679688 -362.6292419433594 545.2733154296875 -261.7099304199219 545.2733154296875 C -215.35118103027344 545.2733154296875 -184.96620178222656 561.2610473632812 -161.38720703125 601.0931396484375 L -201.56544494628906 620.88671875 C -214.25958251953125 601.1981201171875 -237.62985229492188 589.1978149414062 -261.21038818359375 589.1978149414062 C -314.4732666015625 589.1978149414062 -367.7434997558594 644.8583984375 -332.6200256347656 704.9721069335938 Z " style="fill: url(#gradient-12); fill-opacity: 1;" transform="matrix(1, 0, 0, 1, 7.130256088765918, 2.3767521381377605)"/>
    </g>
    <path id="top" class="edge" d="M 340.3642578125 189.5413055419922 C 338.8526916503906 190.52828979492188 338.171142578125 190.82472229003906 336.48046875 191.69076538085938 C 297.0732421875 108.70779418945312 149.38165283203125 118.53990173339844 135.58648681640625 233.50904846191406 C 140.25990295410156 118.14505004882812 300.6151123046875 99.62284088134766 340.3642578125 189.5413055419922 Z " style="stroke: none; fill: rgb(255, 255, 255); fill-opacity: 1;" transform="matrix(1, 0, 0, 1, 6, 2)"/>
    <path id="arrow" class="edge" d="M 270.3914489746094 270.0611267089844 L 264.65032958984375 264.2931823730469 L 343.7581481933594 265.0668640136719 L 270.3914489746094 270.0611267089844 Z " style="stroke: none; fill: rgb(255, 255, 255);" transform="matrix(1, 0, 0, 1, 6, 2)"/>
    <path id="bottom" class="edge" d="M 189.16268920898438 262.59613037109375 C 206.84222412109375 314.4861145019531 264.1899108886719 311.5865783691406 286.28814697265625 286.1527404785156 C 288.9132080078125 289.1226501464844 288.5735168457031 288.65289306640625 291.1745910644531 291.6870422363281 C 271.1377868652344 310.193603515625 203.0752716064453 328.5178527832031 189.16268920898438 262.59613037109375 Z " style="stroke: none; fill: rgb(255, 255, 255); fill-opacity: 0.75;" transform="matrix(1, 0, 0, 1, 6, 2)"/>
  </g>
  <path d="M 184.6630096435547 27.768146514892578 C 382.512451171875 -31.577388763427734 462.816650390625 160.8459930419922 462.816650390625 160.8459930419922 C 462.816650390625 160.8459930419922 375.45941162109375 -23.111543655395508 187.429443359375 33.29086875915527 C -23.948290508906098 96.69679810605152 28.414447784423828 313.230224609375 28.414447784423828 313.230224609375 C 28.414447784423828 313.230224609375 -30.59557907082288 92.33560787253288 184.6630096435547 27.768146514892578 Z " style="stroke: none; fill: rgb(255, 255, 255);"/>
  <path d="M 285.8101806640625 418.1629333496094 C 127.41355759580858 451.46022910637436 86.582763671875 294.8815612792969 86.582763671875 294.8815612792969 C 86.582763671875 294.8815612792969 134.5081024169922 444.0893859863281 284.4516906738281 413.31134033203125 C 444.57799385425426 380.4431481870013 416.16082763671875 213.57582092285156 416.16082763671875 213.57582092285156 C 416.16082763671875 213.57582092285156 452.7923889160156 383.0608215332031 285.8101806640625 418.1629333496094 Z " style="stroke: none; fill: rgb(255, 255, 255);"/>
  <path id="gloss" style="fill: rgb(255, 255, 255); fill-opacity: 0.2; display:xnone;" d="M19.85961,240.78898c30.71856,3.27125 62.15094,4.96005 93.98754,4.96005c138.47569,0 259.43025,-30.08808 351.04012,-78.08185c-4.28914,-11.02418 -9.50778,-21.9395 -15.70141,-32.66718c-41.08554,-71.16225 -117.01477,-115 -199.18585,-115c-130.69083,0 -225.20607,104.42992 -230.14039,220.78898z"/>
  <g id="flare" style="display:xnone" transform="matrix(0.22259251773357394, 0.07340797036886217, -0.07340797036886217, 0.22259251773357394, 1.9083288138294847, -11.57778500603024)">
    <ellipse cx="1134.45861816" cy="300.57922363" rx="439.82751465" ry="11.9576416" style="fill: rgb(255, 255, 255); fill-opacity: 0.75;"/>
    <ellipse transform="matrix(0, 1, -1, 0, 2157.96625, -1435.69171)" cx="1736.27111816" cy="1023.50762939" rx="439.82751465" ry="8.55297852" style="fill: rgb(255, 255, 255); fill-opacity: 0.75;"/>
    <ellipse transform="matrix(0.70312, 0.71107, -0.71106, 0.70313, 1342.25601, -573.00401)" cx="475.06231689" cy="761.9977417" rx="120.34143066" ry="6.36773682" style="fill: rgb(255, 255, 255); stroke-width: 2.09442; fill-opacity: 0.75;"/>
    <ellipse transform="matrix(-0.71107, 0.70312, -0.7031, -0.71108, 1884.5915, 383.55909)" cx="475.06231689" cy="586.44549561" rx="120.34143066" ry="4.9006958" style="fill: rgb(255, 255, 255); stroke-width: 2.09442; fill-opacity: 0.75;"/>
    <ellipse cx="1137.44372559" cy="289.89743042" rx="329.61401367" ry="306.40793991" style="fill: url(#gradient-16); fill-opacity: 0.75;"/>
    <ellipse cx="1137.4440918" cy="289.89743042" rx="66.27416992" ry="61.60816956" style="fill: url(#gradient-17); fill-opacity: 0.75;"/>
  </g>
</svg>