<?xml version="1.0"?>
<svg xmlns:rdf="http://www.w3.org/1999/02/22-rdf-syntax-ns#" xmlns="http://www.w3.org/2000/svg" xmlns:cc="http://creativecommons.org/ns#" xmlns:xlink="http://www.w3.org/1999/xlink" xmlns:dc="http://purl.org/dc/elements/1.1/" xmlns:svg="http://www.w3.org/2000/svg" id="svg6025" viewBox="0 0 690 570" version="1.1">
  <defs id="defs6027">
    <linearGradient id="linearGradient21004-8">
      <stop id="stop21006-0" stop-color="#996200" offset="0"/>
      <stop id="stop21008-4" stop-color="#593900" offset="1"/>
    </linearGradient>
    <linearGradient id="linearGradient8026-0">
      <stop id="stop8028-2" stop-color="#fff" offset="0"/>
      <stop id="stop8030-8" stop-color="#fff" stop-opacity="0" offset="1"/>
    </linearGradient>
    <filter id="filter45683" width="1.2226" y="-.12601" x="-.11132" height="1.252" color-interpolation-filters="sRGB">
      <feGaussianBlur id="feGaussianBlur45685" stdDeviation="1.0099766"/>
    </filter>
    <linearGradient id="linearGradient6294" x1="1152.1" xlink:href="#linearGradient21004-8" gradientUnits="userSpaceOnUse" y1="721.73" gradientTransform="translate(310.34 -122.24)" x2="1126.7" y2="688.86"/>
    <linearGradient id="linearGradient6349" x1="-125.59" gradientUnits="userSpaceOnUse" y1="-33.828" gradientTransform="matrix(17.393 0 0 17.393 2312.8 1649.4)" x2="-125.14" y2="-69.775">
      <stop id="stop5866" stop-color="#a05a2c" offset="0"/>
      <stop id="stop5868" stop-color="#a05a2c" stop-opacity="0" offset="1"/>
    </linearGradient>
    <linearGradient id="linearGradient6356" x1="1056" xlink:href="#linearGradient8026-0" gradientUnits="userSpaceOnUse" y1="490.22" gradientTransform="matrix(3.9154 -.060968 .061948 3.8534 -4019.3 -1197.8)" x2="1065.7" y2="510.61"/>
    <linearGradient id="linearGradient6359" x1="1056" xlink:href="#linearGradient8026-0" gradientUnits="userSpaceOnUse" y1="490.22" gradientTransform="matrix(-3.8087 .059307 .061948 3.8534 4124.4 -1326.1)" x2="1065.7" y2="510.61"/>
    <linearGradient id="linearGradient6364" x1="1470.8" xlink:href="#linearGradient8026-0" gradientUnits="userSpaceOnUse" y1="597.62" gradientTransform="matrix(4.4676 -.069566 .050835 3.1621 -6506 -1224)" x2="1484.6" y2="621.39"/>
    <linearGradient id="linearGradient6367" x1="1470.8" gradientUnits="userSpaceOnUse" y1="597.62" gradientTransform="matrix(4.4676 -.069566 .066525 4.1381 -6515.9 -1818)" x2="1484.6" y2="621.39">
      <stop id="stop44869-2" stop-color="#fff" offset="0"/>
      <stop id="stop44871-0" stop-color="#f8c367" offset="1"/>
    </linearGradient>
    <linearGradient id="linearGradient6370" x1="1128" xlink:href="#linearGradient8026-0" gradientUnits="userSpaceOnUse" y1="698.3" gradientTransform="matrix(3.4194 -.053244 .061948 3.8534 -3804.4 -2112)" x2="1142.8" y2="719.45"/>
    <linearGradient id="linearGradient6373" x1="1152.1" xlink:href="#linearGradient21004-8" gradientUnits="userSpaceOnUse" y1="721.73" gradientTransform="matrix(3.9154 -.060968 .061948 3.8534 -4369.3 -2104.5)" x2="1126.7" y2="688.86"/>
    <linearGradient id="linearGradient6377" x1="1121.2" xlink:href="#linearGradient8026-0" gradientUnits="userSpaceOnUse" y1="711.39" gradientTransform="matrix(3.9154 -.060968 .061948 3.8534 -4361.2 -2107.6)" x2="1132" y2="716.93"/>
    <linearGradient id="linearGradient6380" x1="1123.6" xlink:href="#linearGradient21004-8" gradientUnits="userSpaceOnUse" y1="708.09" gradientTransform="matrix(3.9154 -.060968 .061948 3.8534 -4363.1 -2108.8)" x2="1135.9" y2="722.4"/>
    <radialGradient id="radialGradient6383" gradientUnits="userSpaceOnUse" cy="469.46" cx="975.19" gradientTransform="matrix(5.2333 .30470 -.34050 4.5967 -4791 -1843.6)" r="8.9147">
      <stop id="stop47575-1" stop-color="#fff" offset="0"/>
      <stop id="stop47577-9" stop-color="#fbdea9" offset="1"/>
    </radialGradient>
    <linearGradient id="linearGradient6389" x1="-105.33" gradientUnits="userSpaceOnUse" y1="-49.339" gradientTransform="matrix(17.393 0 0 17.393 2312.8 1649.4)" x2="-105.17" y2="-66.497">
      <stop id="stop5882" stop-color="#008066" offset="0"/>
      <stop id="stop5884" stop-color="#2ca089" offset="1"/>
    </linearGradient>
  </defs>
  <g id="layer1" transform="translate(0 -482.36)">
    <g id="g6395">
      <path id="path2831" fill="#a05a2c" d="m276.58 482.55v346.19h412.49v-346.19h-412.49zm14.732 14.732h383.02v316.73h-383.02v-316.73z"/>
      <path id="rect3777" fill="url(#linearGradient6389)" d="m291.31 497.28h383.02v316.73h-383.02v-316.73z"/>
      <path id="rect4099" fill="#808080" d="m276.58 828.74h412.49v16.363h-412.49v-16.363z"/>
      <path id="path2733" fill="#2c89a0" d="m8.3397 827.31h43.605l26.409-95.439h10.716l-1.1045 98.489 99.391-3.0494 2.5375-95.439h11.259l14.739 46.783c6.9774 19.76 24.567 24.328 38.077 7.4855l53.45-64.26c16.679-21.583-13.51-44.327-31.023-25.401l-31.524 37.521c0 0.62286-6.0046-20.587-6.0046-20.587-7.3388-25.235-31.357-50.039-67.384-50.039h-68.051c-32.024 0-57.237 27.902-62.45 45.417z"/>
      <path id="path4517" fill-rule="evenodd" fill="#fbdea9" d="m112.03 641.85 54.912-2.0948-15.156 82.6-26.789-0.20263-12.967-80.302z"/>
      <path id="path4519" stroke-linejoin="round" d="m104.45 641.45 30.529 19.351 7.832-0.12175 28.827-16.971 0.33917-48.47s-3.2376-32.695-38.574-32.444c-27.507 0.18785-30.657 42.334-30.657 42.334l1.7028 36.322z" fill-rule="evenodd" stroke="#996508" stroke-linecap="round" stroke-width="3.8848px" fill="url(#radialGradient6383)"/>
      <path id="path4521" fill-rule="evenodd" fill="url(#linearGradient6380)" d="m102.61 615.57s-15.499-24.267-11.826-39.469c3.6728-15.202 11.643-24.138 26.517-21.341 11.35 2.1346 19.269 15.121 19.269 15.121l-19.004 1.3974-14.956 44.292z"/>
      <path id="path4523" fill-rule="evenodd" fill="url(#linearGradient6377)" d="m104.49 616.8s-15.499-24.267-11.827-39.469c3.6728-15.203 11.643-24.139 26.518-21.341 11.35 2.1346 19.269 15.121 19.269 15.121l-19.003 1.3974-14.956 44.292z"/>
      <path id="path4525" d="m1440.6 587.36s0.4183-0.0954 0.8289 0.5129c5.0149 7.4281 16.042 7.1915 18.437 12.378 0.4132 0.89471 0.971 0.66079 0.971 0.66079s2.7863-5.1439 0.8573-10.002-3.7718-6.569-8.0017-8.2874c-4.5724-1.8575-5.7869-0.5001-9.1447 0.57155s-3.948 4.1665-3.948 4.1665z" fill-rule="evenodd" transform="matrix(3.4589 -.053861 .054796 3.4085 -4911.2 -1358.5)" filter="url(#filter45683)" fill="url(#linearGradient6294)"/>
      <path id="path4527" fill-rule="evenodd" fill="url(#linearGradient6373)" d="m100.16 561.04s1.6315-0.39275 3.2773 1.9259c20.095 28.318 63.256 26.734 72.955 46.572 1.6733 3.4225 3.8428 2.4871 3.8428 2.4871s10.591-19.992 2.7374-38.594c-7.8537-18.603-15.175-25.083-31.843-31.447-18.018-6.8791-22.689-1.5743-35.77 2.76-13.081 4.3342-15.199 16.296-15.199 16.296z"/>
      <path id="path4529" fill-rule="evenodd" fill="url(#linearGradient6370)" d="m104.42 562.22s1.4245-0.38997 2.8661 1.9323c40.352 28.915 109.21 10.051 41.609-20.887-20.333-6.4323-14.394-1.7034-31.234 2.6893-11.818 3.0828-13.241 16.266-13.241 16.266z"/>
      <path id="path4531" opacity=".54925" fill-rule="evenodd" fill="url(#linearGradient6367)" d="m117.58 584.71c15.039 9.3971 30.026 15.512 47.086 18.311l0.56007 34.795c-18.485 11.451-33.617 11.03-51.71 2.7753l-4.0821-33.427 8.1469-22.454z"/>
      <path id="path4533" fill-rule="evenodd" fill="url(#linearGradient6364)" d="m117.94 587.84c15.003 7.1262 29.965 11.744 47.013 13.82l0.42788 26.589c-18.528 8.8192-33.656 8.553-51.717 2.3108l-3.956-25.531 8.2323-17.19z"/>
      <path id="path4535" fill-rule="evenodd" fill="#2c89a0" d="m163.71 659.13-49.765 70.016 105.67 0.23481s-2.497-42.29-13.164-55.718c-14.86-12.086-42.738-14.532-42.738-14.532z"/>
      <path id="path4537" fill-rule="evenodd" fill="#2c89a0" d="m117.53 662.27 37.135 65.905-90.823 1.5851s2.7313-43.967 12.961-57.72c14.464-12.543 40.726-9.7696 40.726-9.7696z"/>
      <path id="path4539" fill-rule="evenodd" fill="url(#linearGradient6359)" d="m116.22 661.38 20.953 47.559-73.968-1.1045s1.4593-19.226 11.405-32.974c14.064-12.537 41.61-13.48 41.61-13.48z"/>
      <path id="path4541" fill-rule="evenodd" fill="url(#linearGradient6356)" d="m164.4 659.78-27.981 46.55 83.512 0.57973s-2.1255-19.17-12.793-32.598c-14.86-12.086-42.738-14.532-42.738-14.532z"/>
      <path id="path2743" d="m268.49 846.3v-22.715h-267.56v22.715h267.56z" fill="#a05a2c"/>
      <path id="path2743-1" d="m239.16 1052.2v-201.53h-238.22v201.53h238.22z" fill="#a05a2c"/>
      <path id="path2735-0-9" d="m429.01 569.39-4.8084-4.5791-123.59 129.78 4.8084 4.5791 123.59-129.78z" fill="#ddd"/>
      <path id="path2735-0-4" d="m225.76 1038.1v-174.6h-224.83v174.6h224.83z" fill="#fff"/>
      <path id="path2743-1-8" d="m222.31 1035.9v-170.62h-221.38v170.62h221.38z" fill="url(#linearGradient6349)"/>
      <path id="path2838" fill="#ddd" d="m422.11 666.93c-4.1078 8.3442-9.1782 15.445-15.211 21.301-6.0011 5.8254-11.232 8.7381-15.693 8.7381-3.4017 0-6.1295-1.4801-8.1833-4.4402-2.0218-2.9911-3.0326-6.9583-3.0326-11.902 0-9.8559 3.0326-18.531 9.0979-26.025 6.0974-7.4938 13.141-11.241 21.132-11.241 4.8458 0 10.093 1.4801 15.741 4.4402 0.83432-2.9285 4.236-4.3928 10.205-4.3928 0.38506 0 1.0108 0 1.8774 0.0719-1.8293 2.7395-3.2253 6.486-4.1879 11.241l-0.81833 4.014c-0.93071 4.4718-1.396 9.6985-1.396 15.681-0.00006 6.8958 1.6366 10.343 4.91 10.343 3.4658 0 8.1993-2.8336 14.2-8.5016 6.0331-5.6989 11.954-12.941 17.763-21.726l3.7547 2.5504c-5.937 10.391-12.724 19.066-20.362 26.024-7.6378 6.9274-14.201 10.391-19.688 10.391-6.9318 0-10.398-5.6673-10.398-17.003-0.00005-2.3621 0.0962-5.5422 0.2888-9.5411m2.2624-11.288c-6.7393-4.3137-12.339-6.4709-16.8-6.4709-4.8458 0-9.0338 2.8969-12.564 8.6907-3.5301 5.7622-5.2951 12.61-5.2951 20.546-0.00003 6.3602 2.118 9.5403 6.3541 9.5403 4.5891 0 13.366-9.8868 26.331-29.661 0.16045-0.25159 0.81828-1.1336 1.9736-2.6446"/>
      <path id="path2840" fill="#ddd" d="m542.5 662.87c0.44924 1.5426 0.67386 3.1169 0.67394 4.7227-0.00007 7.9036-2.8241 14.784-8.4722 20.64-5.6482 5.8254-12.291 8.7381-19.929 8.7381-5.5839 0-10.141-1.6375-13.671-4.9125-3.498-3.2743-5.247-7.4938-5.247-12.658-0.00001-3.7466 0.70603-9.1155 2.118-16.105l8.087-40.052c-1.5725 0.28035-2.9524 0.42411-4.1398 0.42411-6.8676 0-10.301-3.5108-10.301-10.532 2.0859 1.9523 5.4234 2.9285 10.013 2.9285 4.0114 0 9.3546-1.0078 16.03-3.0227l-11.36 55.921c-0.73814 3.7789-1.1072 7.1164-1.1072 10.013-0.00003 3.8731 1.0429 7.0216 3.1289 9.4462 2.0859 2.393 4.7976 3.5898 8.1352 3.5898 5.0383 0 9.3065-2.2356 12.804-6.7074 3.53-4.502 5.295-9.9335 5.2951-16.294-0.00006-3.1485-0.52954-6.2186-1.5885-9.2097-4.0436-1.3226-7.365-3.0385-9.9644-5.1483-2.5674-2.1098-3.851-4.1879-3.851-6.2344-0.00004-1.0711 0.44925-2.4721 1.3478-4.2037 8.6646 0.66132 15.259 4.3453 19.784 11.052 4.1718 1.9524 8.5684 2.9285 13.19 2.9285 4.7174 0 9.515-1.4017 14.393-4.2037l2.455 3.8256c-5.584 4.1563-11.842 6.2344-18.774 6.2344-3.1771 0-6.1937-0.39536-9.0498-1.1803"/>
      <path id="path2842" fill="#ddd" d="m660.01 657.2c-7.7662 12.784-15.998 22.86-24.694 30.228-8.6968 7.3364-16.768 11.005-24.213 11.005-6.1937 0-11.216-2.0781-15.067-6.2352-3.851-4.1563-5.7765-9.5562-5.7765-16.2-0.00002-8.7539 3.3214-16.374 9.9644-22.86 6.6429-6.5176 14.441-9.7768 23.395-9.7768 3.6263 0 6.5947 0.69008 8.9054 2.0781 2.3426 1.3543 3.514 3.086 3.514 5.1957-0.00006 3.4633-3.0006 6.0612-9.0017 7.7929 0.32089-0.7555 0.48133-1.4794 0.48141-2.1723-0.00005-5.1008-2.7599-7.6512-8.2796-7.6512-4.7817 0-9.1942 2.6288-13.238 7.887-4.0115 5.2274-6.0172 10.958-6.0172 17.192-0.00002 5.0692 1.3318 9.2104 3.9954 12.421 2.6956 3.1808 6.1936 4.7709 10.494 4.7709 11.81 0 25.641-12.012 41.494-36.037l4.0435 2.3614"/>
      <path id="path2830" fill="#dbe3e2" d="m130.32 809.43c-3.2695-4.3325-11.34-6.1054-10.535-12.605 0.74468-15.752 2.0812-31.451 3.2304-47.149 0.94513-11.25 1.5836-22.602 3.7204-33.659 0.85007-5.4039 7.2056-12.012 3.9658-16.461-2.3644-5.0625-4.4249-10.29-7.7094-14.666-3.1416-4.7114 3.345-7.7075 6.6439-7.2281 4.6277 0.064 9.3137-0.76731 14.009-0.35346 3.3639 0.80919 11.275-1.8312 11.044 3.8479-2.032 6.5671-6.2669 11.946-8.1195 18.583-0.77684 5.9483 4.7219 9.7625 5.276 15.606 1.568 12.307 2.8332 24.716 3.8429 37.13 1.1726 7.8659 1.026 15.915 2.3251 23.723 0.54577 7.7956 1.4641 15.547 2.0206 23.343-3.9552 4.5177-8.4536 8.24-12.438 12.707-3.3017 2.5309-6.336 9.126-9.8468 3.517-2.4802-2.1057-4.9519-4.2248-7.4292-6.3349z"/>
    </g>
  </g>
  <metadata>
    <rdf:RDF>
      <cc:Work>
        <dc:format>image/svg+xml</dc:format>
        <dc:type rdf:resource="http://purl.org/dc/dcmitype/StillImage"/>
        <cc:license rdf:resource="http://creativecommons.org/licenses/publicdomain/"/>
        <dc:publisher>
          <cc:Agent rdf:about="http://openclipart.org/">
            <dc:title>Openclipart</dc:title>
          </cc:Agent>
        </dc:publisher>
        <dc:title>Teacher - Professor</dc:title>
        <dc:date>2013-10-19T15:26:01</dc:date>
        <dc:description>Teacher - Professor</dc:description>
        <dc:source>http://openclipart.org/detail/185176/teacher---professor-by-leandrosciola-185176</dc:source>
        <dc:creator>
          <cc:Agent>
            <dc:title>leandrosciola</dc:title>
          </cc:Agent>
        </dc:creator>
        <dc:subject>
          <rdf:Bag>
            <rdf:li>professor</rdf:li>
            <rdf:li>teacher</rdf:li>
          </rdf:Bag>
        </dc:subject>
      </cc:Work>
      <cc:License rdf:about="http://creativecommons.org/licenses/publicdomain/">
        <cc:permits rdf:resource="http://creativecommons.org/ns#Reproduction"/>
        <cc:permits rdf:resource="http://creativecommons.org/ns#Distribution"/>
        <cc:permits rdf:resource="http://creativecommons.org/ns#DerivativeWorks"/>
      </cc:License>
    </rdf:RDF>
  </metadata>
</svg>
