<?xml version="1.0"?>
<svg xmlns:rdf="http://www.w3.org/1999/02/22-rdf-syntax-ns#" xmlns="http://www.w3.org/2000/svg" xmlns:cc="http://creativecommons.org/ns#" xmlns:dc="http://purl.org/dc/elements/1.1/" xmlns:svg="http://www.w3.org/2000/svg" id="svg2" viewBox="0 0 744.09 852.36" version="1.1">
  <title id="title4144">R is for Rocket</title>
  <g id="layer1" transform="translate(0 -200)">
    <g id="g4027" transform="matrix(.97210 .84691 -.84691 .97210 427.98 -164.86)">
      <g id="g3191" transform="matrix(.82045 0 0 1 65.521 -2.1429)">
        <path id="path2985" fill-opacity=".97255" fill="#302975" transform="matrix(1.2188 0 0 1 -79.859 2.1429)" d="m366.75 117.19v2.4062c-49.127 138.33-60.562 234.39-60.562 369.19 0 16.455 0.39833 32.064 1.1562 46.812-60 23.011-62.799 122.95-46.875 194.19 13.858-27.992 25.001-58.264 71.125-59.219 4.4735 11.095 9.4166 20.282 14.719 27.562h15.438c-1.8139-35.197-2.3438-68.948-2.3438-96.812 0.4264-27.057-1.1856-60.23 7.875-59.656 9.9024 0.62714 7.9062 33.173 7.9062 59.656 0.68897 28.76 0.16981 62.141-1.8125 96.812h14.656c5.2997-7.2781 10.248-16.472 14.719-27.562 46.369 0.83247 57.52 31.167 71.406 59.219 15.952-71.363 13.118-171.5-47.188-194.28 0.7535-14.715 1.1562-30.306 1.1562-46.719 0-134.8-11.404-230.86-60.531-369.19v-2.4062c-0.14395 0.40317-0.29418 0.8163-0.4375 1.2188-0.14331-0.40245-0.26229-0.81558-0.40625-1.2188zm0.5625 169.47c12.794 0 23.25 10.21 23.562 23v0.5625c0 13.018-10.544 23.562-23.562 23.562s-23.562-10.544-23.562-23.562 10.544-23.562 23.562-23.562z"/>
        <g id="g3080" transform="matrix(.72760 0 0 .80335 122.25 16.27)">
          <path id="rect3052-0" fill-opacity=".97255" fill="#302975" d="m337.68 667.43c12.186 0.64247 9.7075 34.007 9.7075 61.138 1.4183 49.286-1.2874 111.75-9.7075 171.66-7.9474-60.018-9.7075-124.15-9.7075-171.66 0.52474-27.719-1.4425-61.726 9.7075-61.138z"/>
        </g>
      </g>
      <g id="g3187" transform="matrix(1.1961 0 0 -1.1961 287.06 1874.2)" fill-opacity=".97255">
        <path id="path3084" fill="#f60" d="m67.469 836.19v0.25c-12.146 13.24-20.5 40.802-20.5 72.688 0 16.769 2.3235 44.319 6.2812 57.25-1.4169-20.126-0.60332-20.738-0.625-25.344-0.6446-20.722 5.0142-51.131 15.174-59.14 9.5157 7.868 14.678 37.928 14.67 59.14-0.18031 6.8045-0.06978 6.4034-0.5625 25.344 3.9579-12.932 6.2812-40.482 6.2812-57.25 0-31.883-8.3557-59.446-20.5-72.688v-0.25c-0.03921 0.042-0.08587 0.0827-0.125 0.125-0.03496-0.0378-0.05873-0.0875-0.09375-0.125z"/>
        <path id="path3084-5" fill="#ff0" d="m67.62 895.21v0.13666c-6.6391 7.2372-11.206 22.303-11.206 39.732 0 9.1664 1.2701 24.225 3.4335 31.294-0.77449-11.001-0.3298-11.336-0.34165-13.853-0.35234-11.327 2.7408-27.949 8.2943-32.327 5.2015 4.3008 8.0233 20.732 8.0188 32.327-0.09861 3.7194-0.03819 3.5002-0.30747 13.853 2.1635-7.0686 3.4335-22.128 3.4335-31.294 0-17.428-4.5674-32.495-11.206-39.732v-0.13666c-0.02145 0.023-0.04695 0.0453-0.0684 0.0684-0.01909-0.0207-0.03204-0.0479-0.05127-0.0684z"/>
      </g>
      <path id="path3202" fill="#e6e6e6" d="m305.71 541.65c-58.92 33.42-48.88 135.75-46.42 146.43-1.75-140.47 58.56-142.21 46.42-146.43z"/>
      <path id="path3984" fill="#fff" d="m367.14 137.36c-49.683 151.84-56.388 270.01-53.571 392.14 5.1197 4.0379 13.078 3.3785 13.571 42.143l4.2857 90c-0.1829-169.88-13.111-309.03 35.714-524.29z"/>
      <path id="path3986" fill-opacity=".97255" fill="#b3b3b3" d="m381.9 299.66c-0.0377 14.155-11.516 25.609-25.679 25.609-0.35002 0-0.70197-0.009-1.0486-0.0233 3.0424 2.0914 6.7249 3.3322 10.696 3.3322 10.443 0 18.921-8.4788 18.921-18.921l-0.0233-0.46604c-0.0858-3.5082-1.1277-6.7517-2.8662-9.5306z"/>
      <path id="path3984-5" fill="#fff" d="m367.23 533.99c-13.174-0.088-14.595 5.759-15.108 27.231l2.4757 58.155c-0.80646-66.709-0.24811-81.701 12.632-85.386z"/>
    </g>
  </g>
  <metadata>
    <rdf:RDF>
      <cc:Work>
        <dc:format>image/svg+xml</dc:format>
        <dc:type rdf:resource="http://purl.org/dc/dcmitype/StillImage"/>
        <cc:license rdf:resource="http://creativecommons.org/licenses/publicdomain/"/>
        <dc:publisher>
          <cc:Agent rdf:about="http://openclipart.org/">
            <dc:title>Openclipart</dc:title>
          </cc:Agent>
        </dc:publisher>
        <dc:title>R is for Rocket</dc:title>
        <dc:date>2011-05-21T13:37:18</dc:date>
        <dc:description>An easy Retro 60s Rocket</dc:description>
        <dc:source>http://openclipart.org/detail/139759/r-is-for-rocket-by-marauder</dc:source>
        <dc:creator>
          <cc:Agent>
            <dc:title>marauder</dc:title>
          </cc:Agent>
        </dc:creator>
        <dc:subject>
          <rdf:Bag>
            <rdf:li>60s</rdf:li>
            <rdf:li>athur c. clarke</rdf:li>
            <rdf:li>cartoon</rdf:li>
            <rdf:li>clip art</rdf:li>
            <rdf:li>clipart</rdf:li>
            <rdf:li>cosmic</rdf:li>
            <rdf:li>r is for rocket</rdf:li>
            <rdf:li>retro rocket</rdf:li>
            <rdf:li>rocket</rdf:li>
            <rdf:li>science</rdf:li>
            <rdf:li>space</rdf:li>
            <rdf:li>transportation</rdf:li>
          </rdf:Bag>
        </dc:subject>
      </cc:Work>
      <cc:License rdf:about="http://creativecommons.org/licenses/publicdomain/">
        <cc:permits rdf:resource="http://creativecommons.org/ns#Reproduction"/>
        <cc:permits rdf:resource="http://creativecommons.org/ns#Distribution"/>
        <cc:permits rdf:resource="http://creativecommons.org/ns#DerivativeWorks"/>
      </cc:License>
    </rdf:RDF>
  </metadata>
</svg>
