<?xml version="1.0" encoding="utf-8"?>
<!DOCTYPE svg PUBLIC "-//W3C//DTD SVG 20010904//EN" "http://www.w3.org/TR/2001/REC-SVG-20010904/DTD/svg10.dtd">

<svg width="1000px" height="600px" xml:lang="fr" xmlns="http://www.w3.org/2000/svg" xmlns:xlink="http://www.w3.org/1999/xlink">

<title>Ğeconomicus explication monnaie libre + roulement des joueurs entre "t" et "t+1"</title>

<!-- Premier bloc instant "t" -->

<g transform="translate(250,10) rotate(0)">
<rect x="0" y="0" width="200" height="100" rx="10" ry="10" style="stroke:black;stroke-width:10px;fill:blue;"/>
<text x="40" y="60" style="font-size:30px; letter-spacing:5px; fill:red; fill-opacity:1; stroke:red; stroke-width:2px;">2 rouges</text>
</g>

<g transform="translate(490,140) rotate(0)">
<rect x="0" y="0" width="200" height="100" rx="10" ry="10" style="stroke:black;stroke-width:10px;fill:red;"/>
<text x="40" y="60" style="font-size:30px; letter-spacing:5px; fill:yellow; fill-opacity:1; stroke:yellow; stroke-width:2px;">2 jaunes</text>
</g>

<g transform="translate(250,140) rotate(0)">
<rect x="0" y="0" width="200" height="100" rx="10" ry="10" style="stroke:black;stroke-width:10px;fill:yellow;"/>
<text x="40" y="60" style="font-size:30px; letter-spacing:5px; fill:green; fill-opacity:1; stroke:green; stroke-width:2px;">2 verts</text>
</g>

<g transform="translate(10,140) rotate(0)">
<rect x="0" y="0" width="200" height="100" rx="10" ry="10" style="stroke:black;stroke-width:10px;fill:green;"/>
<text x="40" y="60" style="font-size:30px; letter-spacing:5px; fill:blue; fill-opacity:1; stroke:blue; stroke-width:2px;">2 bleus</text>
</g>

<g transform="translate(0,0) rotate(0)">
<image height="200" width="200" x="0" y="0" xlink:href="arrow_to_right.svg"/>
<image height="200" width="200" x="450" y="0" xlink:href="arrow_to_down.svg"/>
</g>

<g transform="translate(700,40) rotate(0)">
<text x="40" y="40" style="font-size:30px; letter-spacing:5px; fill:black; fill-opacity:1; stroke:black; stroke-width:2px;">Joueurs 1</text>
<text x="40" y="70" style="font-size:30px; letter-spacing:5px; fill:black; fill-opacity:1; stroke:black; stroke-width:2px;">Joueurs 2</text>
<text x="40" y="100" style="font-size:30px; letter-spacing:5px; fill:black; fill-opacity:1; stroke:black; stroke-width:2px;">Joueurs 3</text>
<text x="40" y="130" style="font-size:30px; letter-spacing:5px; fill:black; fill-opacity:1; stroke:black; stroke-width:2px;">Joueurs 4</text>
<text x="40" y="160" style="font-size:30px; letter-spacing:5px; fill:black; fill-opacity:1; stroke:black; stroke-width:2px;">...</text>
<text x="40" y="190" style="font-size:30px; letter-spacing:5px; fill:black; fill-opacity:1; stroke:black; stroke-width:2px;">Joueurs 10</text>
</g>

<!-- Deuxième bloc bloc instant "t+1" -->

<g transform="translate(250,310) rotate(0)">
<rect x="0" y="0" width="200" height="100" rx="10" ry="10" style="stroke:black;stroke-width:10px;fill:green;"/>
<text x="40" y="60" style="font-size:30px; letter-spacing:5px; fill:blue; fill-opacity:1; stroke:blue; stroke-width:2px;">2 bleus</text>
</g>

<g transform="translate(490,440) rotate(0)">
<rect x="0" y="0" width="200" height="100" rx="10" ry="10" style="stroke:black;stroke-width:10px;fill:blue;"/>
<text x="40" y="60" style="font-size:30px; letter-spacing:5px; fill:red; fill-opacity:1; stroke:red; stroke-width:2px;">2 rouges</text>
</g>

<g transform="translate(250,440) rotate(0)">
<rect x="0" y="0" width="200" height="100" rx="10" ry="10" style="stroke:black;stroke-width:10px;fill:red;"/>
<text x="40" y="60" style="font-size:30px; letter-spacing:5px; fill:yellow; fill-opacity:1; stroke:yellow; stroke-width:2px;">2 jaunes</text>
</g>

<g transform="translate(10,440) rotate(0)">
<rect x="0" y="0" width="200" height="100" rx="10" ry="10" style="stroke:black;stroke-width:10px;fill:yellow;"/>
<text x="40" y="60" style="font-size:30px; letter-spacing:5px; fill:green; fill-opacity:1; stroke:green; stroke-width:2px;">2 verts</text>
</g>

<g transform="translate(0,300) rotate(0)">
<image height="200" width="200" x="0" y="0" xlink:href="arrow_to_right.svg"/>
<image height="200" width="200" x="450" y="0" xlink:href="arrow_to_down.svg"/>
</g>

<g transform="translate(700,340) rotate(0)">
<text x="40" y="40" style="font-size:30px; letter-spacing:5px; fill:black; fill-opacity:1; stroke:black; stroke-width:2px;">Joueurs 2</text>
<text x="40" y="70" style="font-size:30px; letter-spacing:5px; fill:black; fill-opacity:1; stroke:black; stroke-width:2px;">Joueurs 3</text>
<text x="40" y="100" style="font-size:30px; letter-spacing:5px; fill:black; fill-opacity:1; stroke:black; stroke-width:2px;">Joueurs 4</text>
<text x="40" y="130" style="font-size:30px; letter-spacing:5px; fill:black; fill-opacity:1; stroke:black; stroke-width:2px;">...</text>
<text x="40" y="160" style="font-size:30px; letter-spacing:5px; fill:black; fill-opacity:1; stroke:black; stroke-width:2px;">Joueurs 10</text>
<text x="40" y="190" style="font-size:30px; letter-spacing:5px; fill:black; fill-opacity:1; stroke:black; stroke-width:2px;">Joueurs 1</text>
</g>


</svg>
