<svg version="1.1" viewBox="0 0 301.18 194.88" xml:lang="fr" xmlns="http://www.w3.org/2000/svg" xmlns:osb="http://www.openswatchbook.org/uri/2009/osb" xmlns:xlink="http://www.w3.org/1999/xlink">
 <title>Ğeconomicus billet format "carte de visite standard" 85x55 mm - Avec marges pleines : 1040 x 685 pixels - coupé : 1004 x 650 (36 pixels de marge)</title>
 <rect width="301.18" height="194.88" fill="#008bbb icc-color(PSO-Coated-v3, 0.99078339, 0, 0.00003052, 0.19815668)"/>
 <path transform="translate(-94.96 -4.2242)" d="m128.09 52.647a14.912 14.912 0 1 1 0-29.824v14.912z" fill="#e20f23 icc-color(PSO-Coated-v3, 0.00210575, 1, 0.84999996, 0)" stroke="#000" stroke-linecap="round" stroke-width=".99213"/>
 <g fill="#00a45c icc-color(PSO-Coated-v3, 1, 0.00460829, 0.99539173, 0)" stroke="#000">
  <path transform="translate(97.638 -4.6065)" d="m143 37.735a14.912 14.912 0 1 1-29.824 0 14.912 14.912 0 1 1 29.824 0z"/>
  <path transform="translate(117.64 -4.6065)" d="m143 37.735a14.912 14.912 0 1 1-29.824 0 14.912 14.912 0 1 1 29.824 0z"/>
  <path transform="translate(97.638 124.02)" d="m143 37.735a14.912 14.912 0 1 1-29.824 0 14.912 14.912 0 1 1 29.824 0z"/>
 </g>
 <path transform="translate(117.64 124.02)" d="m143 37.735a14.912 14.912 0 1 1-29.824 0 14.912 14.912 0 1 1 29.824 0z" fill="#00a55c icc-color(PSO-Coated-v3, 1, 0, 1, 0)" stroke="#000"/>
 <g fill="#00a45c icc-color(PSO-Coated-v3, 1, 0.00460829, 0.99539173, 0)" stroke="#000">
  <path transform="matrix(-1 0 0 1 203.54 124.15)" d="m143 37.735a14.912 14.912 0 1 1-29.824 0 14.912 14.912 0 1 1 29.824 0z"/>
  <path transform="matrix(-1 0 0 1 183.54 124.15)" d="m143 37.735a14.912 14.912 0 1 1-29.824 0 14.912 14.912 0 1 1 29.824 0z"/>
  <path transform="matrix(-1 0 0 1 201.26 -4.6065)" d="m143 37.735a14.912 14.912 0 1 1-29.824 0 14.912 14.912 0 1 1 29.824 0z"/>
  <path transform="matrix(-1 0 0 1 183.54 -4.6065)" d="m143 37.735a14.912 14.912 0 1 1-29.824 0 14.912 14.912 0 1 1 29.824 0z"/>
 </g>
 <text x="113.47062" y="141.14441" fill="#00a3d9 icc-color(PSO-Coated-v3, 0.99539173, 0, 0.00004578, 0)" font-family="sans-serif" letter-spacing="0px" word-spacing="0px" style="line-height:0%" xml:space="preserve"><tspan x="113.47062" y="141.14441" font-size="95.625px" style="line-height:1.25"><tspan x="113.47062" y="141.14441" fill="#00a3d9 icc-color(PSO-Coated-v3, 0.99539173, 0, 0.00004578, 0)" font-family="serif">Ğ</tspan></tspan></text>
 <g fill="#e20f23 icc-color(PSO-Coated-v3, 0.00210575, 1, 0.84999996, 0)" stroke="#000" stroke-linecap="round" stroke-width=".99213">
  <path transform="translate(-94.964 124.15)" d="m128.09 52.647a14.912 14.912 0 1 1 0-29.824v14.912z"/>
  <path transform="matrix(-1 0 0 1 396.14 -4.6105)" d="m128.09 52.647a14.912 14.912 0 1 1 0-29.824v14.912z"/>
  <path transform="matrix(-1 0 0 1 396.14 124.15)" d="m128.09 52.647a14.912 14.912 0 1 1 0-29.824v14.912z"/>
 </g>
</svg>
