<?xml version="1.0" encoding="UTF-8" standalone="no"?>
<!-- Created with Inkscape (http://www.inkscape.org/) -->

<svg
   xmlns:osb="http://www.openswatchbook.org/uri/2009/osb"
   xmlns:dc="http://purl.org/dc/elements/1.1/"
   xmlns:cc="http://creativecommons.org/ns#"
   xmlns:rdf="http://www.w3.org/1999/02/22-rdf-syntax-ns#"
   xmlns:svg="http://www.w3.org/2000/svg"
   xmlns="http://www.w3.org/2000/svg"
   xmlns:sodipodi="http://sodipodi.sourceforge.net/DTD/sodipodi-0.dtd"
   xmlns:inkscape="http://www.inkscape.org/namespaces/inkscape"
   width="1052.3622"
   height="744.09448"
   id="svg2"
   version="1.1"
   inkscape:version="0.48.4 r9939"
   sodipodi:docname="help_sheet.svg">
  <defs
     id="defs4">
    <marker
       inkscape:stockid="TriangleInL"
       orient="auto"
       refY="0.0"
       refX="0.0"
       id="TriangleInL"
       style="overflow:visible">
      <path
         id="path8122"
         d="M 5.77,0.0 L -2.88,5.0 L -2.88,-5.0 L 5.77,0.0 z "
         style="fill-rule:evenodd;stroke:#000000;stroke-width:1.0pt"
         transform="scale(-0.8)" />
    </marker>
    <marker
       inkscape:stockid="Arrow1Lstart"
       orient="auto"
       refY="0.0"
       refX="0.0"
       id="Arrow1Lstart"
       style="overflow:visible">
      <path
         id="path7989"
         d="M 0.0,0.0 L 5.0,-5.0 L -12.5,0.0 L 5.0,5.0 L 0.0,0.0 z "
         style="fill-rule:evenodd;stroke:#000000;stroke-width:1.0pt"
         transform="scale(0.8) translate(12.5,0)" />
    </marker>
    <marker
       inkscape:stockid="Arrow2Lstart"
       orient="auto"
       refY="0.0"
       refX="0.0"
       id="Arrow2Lstart"
       style="overflow:visible">
      <path
         id="path20063"
         style="fill-rule:evenodd;stroke-width:0.62500000;stroke-linejoin:round"
         d="M 8.7185878,4.0337352 L -2.2072895,0.016013256 L 8.7185884,-4.0017078 C 6.9730900,-1.6296469 6.9831476,1.6157441 8.7185878,4.0337352 z "
         transform="scale(1.1) translate(1,0)" />
    </marker>
    <marker
       inkscape:stockid="TriangleOutL"
       orient="auto"
       refY="0.0"
       refX="0.0"
       id="TriangleOutL"
       style="overflow:visible">
      <path
         id="path4533"
         d="M 5.77,0.0 L -2.88,5.0 L -2.88,-5.0 L 5.77,0.0 z "
         style="fill-rule:evenodd;stroke:#000000;stroke-width:1.0pt"
         transform="scale(0.8)" />
    </marker>
    <marker
       inkscape:stockid="Arrow2Lend"
       orient="auto"
       refY="0.0"
       refX="0.0"
       id="Arrow2Lend"
       style="overflow:visible;">
      <path
         id="path4412"
         style="fill-rule:evenodd;stroke-width:0.62500000;stroke-linejoin:round;"
         d="M 8.7185878,4.0337352 L -2.2072895,0.016013256 L 8.7185884,-4.0017078 C 6.9730900,-1.6296469 6.9831476,1.6157441 8.7185878,4.0337352 z "
         transform="scale(1.1) rotate(180) translate(1,0)" />
    </marker>
    <marker
       inkscape:stockid="Arrow1Send"
       orient="auto"
       refY="0.0"
       refX="0.0"
       id="Arrow1Send"
       style="overflow:visible;">
      <path
         id="path4406"
         d="M 0.0,0.0 L 5.0,-5.0 L -12.5,0.0 L 5.0,5.0 L 0.0,0.0 z "
         style="fill-rule:evenodd;stroke:#000000;stroke-width:1.0pt;"
         transform="scale(0.2) rotate(180) translate(6,0)" />
    </marker>
    <marker
       inkscape:stockid="Arrow1Mend"
       orient="auto"
       refY="0.0"
       refX="0.0"
       id="Arrow1Mend"
       style="overflow:visible;">
      <path
         id="path4400"
         d="M 0.0,0.0 L 5.0,-5.0 L -12.5,0.0 L 5.0,5.0 L 0.0,0.0 z "
         style="fill-rule:evenodd;stroke:#000000;stroke-width:1.0pt;"
         transform="scale(0.4) rotate(180) translate(10,0)" />
    </marker>
    <marker
       inkscape:stockid="Arrow1Lend"
       orient="auto"
       refY="0.0"
       refX="0.0"
       id="Arrow1Lend"
       style="overflow:visible;">
      <path
         id="path4394"
         d="M 0.0,0.0 L 5.0,-5.0 L -12.5,0.0 L 5.0,5.0 L 0.0,0.0 z "
         style="fill-rule:evenodd;stroke:#000000;stroke-width:1.0pt;"
         transform="scale(0.8) rotate(180) translate(12.5,0)" />
    </marker>
    <linearGradient
       id="linearGradient3755"
       osb:paint="solid">
      <stop
         style="stop-color:#000000;stop-opacity:1;"
         offset="0"
         id="stop3757" />
    </linearGradient>
  </defs>
  <sodipodi:namedview
     id="base"
     pagecolor="#ffffff"
     bordercolor="#666666"
     borderopacity="1.0"
     inkscape:pageopacity="0.0"
     inkscape:pageshadow="2"
     inkscape:zoom="0.98994949"
     inkscape:cx="463.55364"
     inkscape:cy="378.96878"
     inkscape:document-units="mm"
     inkscape:current-layer="layer1"
     showgrid="true"
     inkscape:window-width="1615"
     inkscape:window-height="1026"
     inkscape:window-x="65"
     inkscape:window-y="24"
     inkscape:window-maximized="1"
     inkscape:snap-bbox="true">
    <inkscape:grid
       type="xygrid"
       id="grid19501"
       units="mm"
       empspacing="5"
       visible="true"
       enabled="true"
       snapvisiblegridlinesonly="true" />
  </sodipodi:namedview>
  <metadata
     id="metadata7">
    <rdf:RDF>
      <cc:Work
         rdf:about="">
        <dc:format>image/svg+xml</dc:format>
        <dc:type
           rdf:resource="http://purl.org/dc/dcmitype/StillImage" />
        <dc:title />
      </cc:Work>
    </rdf:RDF>
  </metadata>
  <g
     inkscape:label="Calque 1"
     inkscape:groupmode="layer"
     id="layer1"
     transform="translate(0,-308.2677)"
     style="display:inline">
    <rect
       style="fill:none;stroke:#000000;stroke-width:8.64049625;stroke-linejoin:round;stroke-miterlimit:4;stroke-opacity:1;stroke-dasharray:none"
       id="rect2985-1"
       width="307.43103"
       height="211.15004"
       x="-679.89661"
       y="737.78479"
       transform="scale(-1,1)" />
    <rect
       y="436.69351"
       x="-679.80676"
       height="220.15147"
       width="307.25137"
       id="rect3786"
       style="fill:none;stroke:#000000;stroke-width:8.82016945;stroke-linejoin:round;stroke-miterlimit:4;stroke-opacity:1;stroke-dasharray:none"
       transform="scale(-1,1)" />
    <rect
       style="fill:none;stroke:#000000;stroke-width:8.82016945;stroke-linecap:square;stroke-linejoin:round;stroke-miterlimit:4;stroke-opacity:1;stroke-dasharray:none"
       id="rect3788"
       width="307.25137"
       height="220.15147"
       x="-1019.8068"
       y="436.69351"
       transform="scale(-1,1)" />
    <rect
       y="436.69351"
       x="-339.80679"
       height="220.15147"
       width="307.25137"
       id="rect3790"
       style="fill:none;stroke:#000000;stroke-width:8.82016945;stroke-linejoin:round;stroke-miterlimit:4;stroke-opacity:1;stroke-dasharray:none"
       transform="scale(-1,1)" />
    <g
       id="g9827"
       transform="matrix(0.94899834,0,0,1.0170521,47.203059,-14.975334)">
      <path
         style="font-size:medium;font-style:normal;font-variant:normal;font-weight:normal;font-stretch:normal;text-indent:0;text-align:start;text-decoration:none;line-height:normal;letter-spacing:normal;word-spacing:normal;text-transform:none;direction:ltr;block-progression:tb;writing-mode:lr-tb;text-anchor:start;baseline-shift:baseline;color:#000000;fill:#000000;fill-opacity:1;stroke:none;stroke-width:4.11104631;marker:none;visibility:visible;display:inline;overflow:visible;enable-background:accumulate;font-family:sans-serif;-inkscape-font-specification:Sans"
         d="m 873.71414,726.97543 0,4.48262 c 0.10285,74.0354 -80.12822,136.72797 -187.13477,146.20237 l -6.53263,0.55171 -1.70854,-9.0342 6.63314,-0.55171 c 100.51109,-8.8993 175.57315,-67.55786 175.47654,-137.09921 l 0,-4.55158 13.26626,0 z"
         id="path4385"
         inkscape:connector-curvature="0" />
      <path
         style="fill-rule:evenodd;stroke:#000000;stroke-width:8.76171341pt"
         d="m 867.02466,689.61803 -52.79834,62.81538 105.77109,-0.0692 -52.97275,-62.74621 z"
         id="path9833"
         inkscape:connector-curvature="0" />
    </g>
    <g
       id="g9835"
       transform="matrix(1.0707828,0,0,0.90514066,-12.705045,90.222937)">
      <path
         style="font-size:medium;font-style:normal;font-variant:normal;font-weight:normal;font-stretch:normal;text-indent:0;text-align:start;text-decoration:none;line-height:normal;letter-spacing:normal;word-spacing:normal;text-transform:none;direction:ltr;block-progression:tb;writing-mode:lr-tb;text-anchor:start;baseline-shift:baseline;color:#000000;fill:#000000;fill-opacity:1;stroke:none;stroke-width:4.11104631;marker:none;visibility:visible;display:inline;overflow:visible;enable-background:accumulate;font-family:sans-serif;-inkscape-font-specification:Sans"
         d="m 306.0767,889.01725 -3.74265,0.0128 C 240.52014,889.36668 188.04732,792.0208 179.96461,661.97584 l -0.47115,-7.93918 7.54014,-2.10263 0.47131,8.06134 c 7.59209,122.15104 56.68848,213.22523 114.7502,212.90905 l 3.80023,-0.013 0.0214,16.12584 z"
         id="path6537"
         inkscape:connector-curvature="0" />
      <path
         style="fill-rule:evenodd;stroke:#000000;stroke-width:8.82674866pt"
         d="m 337.25659,880.77907 -52.5312,-63.99961 0.22806,128.57007 52.30314,-64.57046 z"
         id="path9841"
         inkscape:connector-curvature="0" />
    </g>
    <rect
       style="fill:#000000;fill-opacity:1;stroke:#000000;stroke-width:3.5999999;stroke-linecap:square;stroke-linejoin:round;stroke-miterlimit:4;stroke-opacity:1;stroke-dasharray:none"
       id="rect6539"
       width="312.13715"
       height="42.426434"
       x="-682.24963"
       y="949.3266"
       ry="0"
       transform="scale(-1,1)" />
    <text
       xml:space="preserve"
       style="font-size:40px;font-style:normal;font-weight:normal;line-height:125%;letter-spacing:0px;word-spacing:0px;fill:#000000;fill-opacity:1;stroke:none;font-family:sans-serif"
       x="376.15179"
       y="368.48892"
       id="text8001"
       sodipodi:linespacing="125%"><tspan
         sodipodi:role="line"
         id="tspan8003"
         x="376.15179"
         y="368.48892"
         style="font-style:normal;font-variant:normal;font-weight:bold;font-stretch:normal;font-family:serif;-inkscape-font-specification:Serif Bold">Ğeconomicus</tspan></text>
    <g
       id="g3097"
       transform="matrix(-1,0,0,1,1039.8343,0)">
      <path
         transform="translate(354.04907,334.53167)"
         d="m 174.75638,633.98785 c 0,8.36838 -6.78391,15.15229 -15.15228,15.15229 -8.36838,0 -15.15229,-6.78391 -15.15229,-15.15229 0,-8.36837 6.78391,-15.15228 15.15229,-15.15228 8.36837,0 15.15228,6.78391 15.15228,15.15228 z"
         sodipodi:ry="15.152288"
         sodipodi:rx="15.152288"
         sodipodi:cy="633.98785"
         sodipodi:cx="159.6041"
         id="path3023-9"
         style="fill:#ffffff;fill-opacity:1;stroke:none;display:inline"
         sodipodi:type="arc" />
      <path
         transform="translate(394.04907,334.53167)"
         d="m 174.75638,633.98785 c 0,8.36838 -6.78391,15.15229 -15.15228,15.15229 -8.36838,0 -15.15229,-6.78391 -15.15229,-15.15229 0,-8.36837 6.78391,-15.15228 15.15229,-15.15228 8.36837,0 15.15228,6.78391 15.15228,15.15228 z"
         sodipodi:ry="15.152288"
         sodipodi:rx="15.152288"
         sodipodi:cy="633.98785"
         sodipodi:cx="159.6041"
         id="path3023-9-1"
         style="fill:#ffffff;fill-opacity:1;stroke:none;display:inline"
         sodipodi:type="arc" />
      <path
         transform="translate(314.04907,334.53167)"
         d="m 174.75638,633.98785 c 0,8.36838 -6.78391,15.15229 -15.15228,15.15229 -8.36838,0 -15.15229,-6.78391 -15.15229,-15.15229 0,-8.36837 6.78391,-15.15228 15.15229,-15.15228 8.36837,0 15.15228,6.78391 15.15228,15.15228 z"
         sodipodi:ry="15.152288"
         sodipodi:rx="15.152288"
         sodipodi:cy="633.98785"
         sodipodi:cx="159.6041"
         id="path3023-9-4"
         style="fill:#ffffff;fill-opacity:1;stroke:none;display:inline"
         sodipodi:type="arc" />
    </g>
    <rect
       style="fill:#000000;fill-opacity:1;stroke:none"
       id="rect20879"
       width="88.58268"
       height="17.716536"
       x="141.73228"
       y="538.58264" />
    <g
       id="g20885"
       style="fill:#000000"
       transform="translate(-2.4029587e-6,-17.716535)">
      <rect
         transform="translate(0,308.2677)"
         y="248.03149"
         x="814.96063"
         height="17.716536"
         width="88.58268"
         id="rect20881"
         style="fill:#000000;fill-opacity:1;stroke:none" />
      <rect
         transform="translate(0,308.2677)"
         y="212.59842"
         x="850.39368"
         height="88.58268"
         width="17.716536"
         id="rect20883"
         style="fill:#000000;fill-opacity:1;stroke:none" />
    </g>
    <g
       id="g9821"
       transform="matrix(1.0026937,0,0,1,2.0232727,-34.524995)">
      <path
         style="font-size:medium;font-style:normal;font-variant:normal;font-weight:normal;font-stretch:normal;text-indent:0;text-align:start;text-decoration:none;line-height:normal;letter-spacing:normal;word-spacing:normal;text-transform:none;direction:ltr;block-progression:tb;writing-mode:lr-tb;text-anchor:start;baseline-shift:baseline;color:#000000;fill:#000000;fill-opacity:1;stroke:none;stroke-width:7.80505753px;marker:none;visibility:visible;display:inline;overflow:visible;enable-background:accumulate;font-family:sans-serif;-inkscape-font-specification:Sans"
         d="m 444.28125,568.90625 0,7.8125 189.625,0 0,-7.8125 -189.625,0 z"
         id="path9223"
         inkscape:connector-curvature="0" />
      <path
         style="fill-rule:evenodd;stroke:#000000;stroke-width:6.24404602pt"
         d="m 408.26508,572.80259 54.011,-31.22023 0,62.44046 -54.011,-31.22023 z"
         id="path9825"
         inkscape:connector-curvature="0" />
    </g>
  </g>
</svg>
