<?xml version="1.0" encoding="UTF-8" standalone="no"?>
<!-- Created with Inkscape (http://www.inkscape.org/) -->

<svg
   xmlns:osb="http://www.openswatchbook.org/uri/2009/osb"
   xmlns:dc="http://purl.org/dc/elements/1.1/"
   xmlns:cc="http://creativecommons.org/ns#"
   xmlns:rdf="http://www.w3.org/1999/02/22-rdf-syntax-ns#"
   xmlns:svg="http://www.w3.org/2000/svg"
   xmlns="http://www.w3.org/2000/svg"
   xmlns:sodipodi="http://sodipodi.sourceforge.net/DTD/sodipodi-0.dtd"
   xmlns:inkscape="http://www.inkscape.org/namespaces/inkscape"
   width="1052.3622"
   height="744.09448"
   id="svg2"
   version="1.1"
   inkscape:version="0.48.4 r9939"
   sodipodi:docname="help_sheet_money.svg">
  <defs
     id="defs4">
    <marker
       inkscape:stockid="TriangleOutL"
       orient="auto"
       refY="0.0"
       refX="0.0"
       id="TriangleOutL"
       style="overflow:visible">
      <path
         id="path4533"
         d="M 5.77,0.0 L -2.88,5.0 L -2.88,-5.0 L 5.77,0.0 z "
         style="fill-rule:evenodd;stroke:#000000;stroke-width:1.0pt"
         transform="scale(0.8)" />
    </marker>
    <marker
       inkscape:stockid="Arrow2Lend"
       orient="auto"
       refY="0.0"
       refX="0.0"
       id="Arrow2Lend"
       style="overflow:visible;">
      <path
         id="path4412"
         style="fill-rule:evenodd;stroke-width:0.62500000;stroke-linejoin:round;"
         d="M 8.7185878,4.0337352 L -2.2072895,0.016013256 L 8.7185884,-4.0017078 C 6.9730900,-1.6296469 6.9831476,1.6157441 8.7185878,4.0337352 z "
         transform="scale(1.1) rotate(180) translate(1,0)" />
    </marker>
    <marker
       inkscape:stockid="Arrow1Send"
       orient="auto"
       refY="0.0"
       refX="0.0"
       id="Arrow1Send"
       style="overflow:visible;">
      <path
         id="path4406"
         d="M 0.0,0.0 L 5.0,-5.0 L -12.5,0.0 L 5.0,5.0 L 0.0,0.0 z "
         style="fill-rule:evenodd;stroke:#000000;stroke-width:1.0pt;"
         transform="scale(0.2) rotate(180) translate(6,0)" />
    </marker>
    <marker
       inkscape:stockid="Arrow1Mend"
       orient="auto"
       refY="0.0"
       refX="0.0"
       id="Arrow1Mend"
       style="overflow:visible;">
      <path
         id="path4400"
         d="M 0.0,0.0 L 5.0,-5.0 L -12.5,0.0 L 5.0,5.0 L 0.0,0.0 z "
         style="fill-rule:evenodd;stroke:#000000;stroke-width:1.0pt;"
         transform="scale(0.4) rotate(180) translate(10,0)" />
    </marker>
    <marker
       inkscape:stockid="Arrow1Lend"
       orient="auto"
       refY="0.0"
       refX="0.0"
       id="Arrow1Lend"
       style="overflow:visible;">
      <path
         id="path4394"
         d="M 0.0,0.0 L 5.0,-5.0 L -12.5,0.0 L 5.0,5.0 L 0.0,0.0 z "
         style="fill-rule:evenodd;stroke:#000000;stroke-width:1.0pt;"
         transform="scale(0.8) rotate(180) translate(12.5,0)" />
    </marker>
    <linearGradient
       id="linearGradient3755"
       osb:paint="solid">
      <stop
         style="stop-color:#000000;stop-opacity:1;"
         offset="0"
         id="stop3757" />
    </linearGradient>
    <linearGradient
       osb:paint="solid"
       id="linearGradient7553">
      <stop
         id="stop7555"
         offset="0"
         style="stop-color:#000000;stop-opacity:1;" />
    </linearGradient>
    <linearGradient
       osb:paint="solid"
       id="linearGradient7553-8">
      <stop
         id="stop7555-1"
         offset="0"
         style="stop-color:#000000;stop-opacity:1;" />
    </linearGradient>
    <linearGradient
       osb:paint="solid"
       id="linearGradient7553-6">
      <stop
         id="stop7555-0"
         offset="0"
         style="stop-color:#000000;stop-opacity:1;" />
    </linearGradient>
  </defs>
  <sodipodi:namedview
     id="base"
     pagecolor="#ffffff"
     bordercolor="#666666"
     borderopacity="1.0"
     inkscape:pageopacity="0.0"
     inkscape:pageshadow="2"
     inkscape:zoom="0.98994949"
     inkscape:cx="538.55407"
     inkscape:cy="41.821455"
     inkscape:document-units="px"
     inkscape:current-layer="layer2"
     showgrid="false"
     inkscape:window-width="1615"
     inkscape:window-height="1026"
     inkscape:window-x="65"
     inkscape:window-y="24"
     inkscape:window-maximized="1" />
  <metadata
     id="metadata7">
    <rdf:RDF>
      <cc:Work
         rdf:about="">
        <dc:format>image/svg+xml</dc:format>
        <dc:type
           rdf:resource="http://purl.org/dc/dcmitype/StillImage" />
        <dc:title />
      </cc:Work>
    </rdf:RDF>
  </metadata>
  <g
     inkscape:label="Calque 1"
     inkscape:groupmode="layer"
     id="layer1"
     transform="translate(0,-308.2677)"
     style="display:inline"
     sodipodi:insensitive="true">
    <rect
       style="fill:none;stroke:#000000;stroke-width:7.66300011;stroke-linejoin:round;stroke-miterlimit:4;stroke-opacity:1;stroke-dasharray:none"
       id="rect2985-1"
       width="308.40854"
       height="165.55139"
       x="371.97684"
       y="783.87219" />
    <rect
       y="491.87219"
       x="371.97684"
       height="165.55139"
       width="308.40854"
       id="rect3786"
       style="fill:none;stroke:#000000;stroke-width:7.66300011;stroke-linejoin:round;stroke-miterlimit:4;stroke-opacity:1;stroke-dasharray:none" />
    <rect
       style="fill:none;stroke:#000000;stroke-width:7.66300011;stroke-linecap:square;stroke-linejoin:round;stroke-miterlimit:4;stroke-opacity:1;stroke-dasharray:none"
       id="rect3788"
       width="308.40854"
       height="165.55139"
       x="31.976837"
       y="491.87219" />
    <rect
       y="491.87219"
       x="711.97681"
       height="165.55139"
       width="308.40854"
       id="rect3790"
       style="fill:none;stroke:#000000;stroke-width:7.66300011;stroke-linejoin:round;stroke-miterlimit:4;stroke-opacity:1;stroke-dasharray:none" />
    <path
       sodipodi:type="arc"
       style="fill:none;stroke:#000000;stroke-width:4.11104631;stroke-linecap:square;stroke-linejoin:round;stroke-miterlimit:4;stroke-opacity:1;stroke-dasharray:none;marker-start:none;marker-mid:url(#TriangleOutL);marker-end:url(#TriangleOutL)"
       id="path4385"
       sodipodi:cx="226.27417"
       sodipodi:cy="524.89136"
       sodipodi:rx="64.649765"
       sodipodi:ry="64.649765"
       d="m 218.00086,589.00956 c -32.26267,-4.16292 -56.40743,-31.64971 -56.37643,-64.17982"
       transform="matrix(3.2087823,0,0,2.4312549,-333.19287,-559.16761)"
       sodipodi:start="1.6991195"
       sodipodi:end="3.1425458"
       sodipodi:open="true" />
    <path
       sodipodi:open="true"
       sodipodi:end="3.1425458"
       sodipodi:start="1.6991195"
       transform="matrix(0.00590303,-3.8992331,2.100493,0.00629091,-370.24702,1507.6789)"
       d="m 218.00086,589.00956 c -32.26267,-4.16292 -56.40743,-31.64971 -56.37643,-64.17982"
       sodipodi:ry="64.649765"
       sodipodi:rx="64.649765"
       sodipodi:cy="524.89136"
       sodipodi:cx="226.27417"
       id="path6537"
       style="fill:none;stroke:#000000;stroke-width:4.11104631;stroke-linecap:square;stroke-linejoin:round;stroke-miterlimit:4;stroke-opacity:1;stroke-dasharray:none;marker-start:none;marker-mid:url(#TriangleOutL);marker-end:url(#TriangleOutL)"
       sodipodi:type="arc" />
    <rect
       style="fill:#000000;fill-opacity:1;stroke:#000000;stroke-width:3.5999999;stroke-linecap:square;stroke-linejoin:round;stroke-miterlimit:4;stroke-opacity:1;stroke-dasharray:none"
       id="rect6539"
       width="312.13715"
       height="42.426434"
       x="370.11252"
       y="949.3266"
       ry="0" />
    <text
       xml:space="preserve"
       style="font-size:40px;font-style:normal;font-weight:normal;line-height:125%;letter-spacing:0px;word-spacing:0px;fill:#000000;fill-opacity:1;stroke:none;font-family:Sans"
       x="376.15179"
       y="368.48892"
       id="text8001"
       sodipodi:linespacing="125%"><tspan
         sodipodi:role="line"
         id="tspan8003"
         x="376.15179"
         y="368.48892"
         style="font-style:normal;font-variant:normal;font-weight:bold;font-stretch:normal;font-family:Serif;-inkscape-font-specification:Serif Bold">Ğeconomicus</tspan></text>
    <g
       id="g3097"
       transform="translate(12.527926,0)">
      <path
         transform="translate(354.04907,334.53167)"
         d="m 174.75638,633.98785 c 0,8.36838 -6.78391,15.15229 -15.15228,15.15229 -8.36838,0 -15.15229,-6.78391 -15.15229,-15.15229 0,-8.36837 6.78391,-15.15228 15.15229,-15.15228 8.36837,0 15.15228,6.78391 15.15228,15.15228 z"
         sodipodi:ry="15.152288"
         sodipodi:rx="15.152288"
         sodipodi:cy="633.98785"
         sodipodi:cx="159.6041"
         id="path3023-9"
         style="fill:#ffffff;fill-opacity:1;stroke:none;display:inline"
         sodipodi:type="arc" />
      <path
         transform="translate(394.04907,334.53167)"
         d="m 174.75638,633.98785 c 0,8.36838 -6.78391,15.15229 -15.15228,15.15229 -8.36838,0 -15.15229,-6.78391 -15.15229,-15.15229 0,-8.36837 6.78391,-15.15228 15.15229,-15.15228 8.36837,0 15.15228,6.78391 15.15228,15.15228 z"
         sodipodi:ry="15.152288"
         sodipodi:rx="15.152288"
         sodipodi:cy="633.98785"
         sodipodi:cx="159.6041"
         id="path3023-9-1"
         style="fill:#ffffff;fill-opacity:1;stroke:none;display:inline"
         sodipodi:type="arc" />
      <path
         transform="translate(314.04907,334.53167)"
         d="m 174.75638,633.98785 c 0,8.36838 -6.78391,15.15229 -15.15228,15.15229 -8.36838,0 -15.15229,-6.78391 -15.15229,-15.15229 0,-8.36837 6.78391,-15.15228 15.15229,-15.15228 8.36837,0 15.15228,6.78391 15.15228,15.15228 z"
         sodipodi:ry="15.152288"
         sodipodi:rx="15.152288"
         sodipodi:cy="633.98785"
         sodipodi:cx="159.6041"
         id="path3023-9-4"
         style="fill:#ffffff;fill-opacity:1;stroke:none;display:inline"
         sodipodi:type="arc" />
    </g>
  </g>
  <g
     inkscape:groupmode="layer"
     id="layer2"
     inkscape:label="money">
    <g
       id="g3258">
      <rect
         id="rect3186"
         style="fill:#ffff00;fill-opacity:1;stroke:none"
         height="194.88188"
         width="301.18109"
         y="438.56213"
         x="376.70908" />
      <path
         transform="translate(281.74914,434.33795)"
         sodipodi:end="4.712389"
         sodipodi:start="1.5707963"
         d="m 128.08824,52.646586 a 14.911765,14.911765 0 1 1 0,-29.82353 l 0,14.911765 z"
         sodipodi:ry="14.911765"
         sodipodi:rx="14.911765"
         sodipodi:cy="37.734821"
         sodipodi:cx="128.08824"
         id="path3996"
         style="fill:#ff0000;fill-opacity:1;stroke:#000000;stroke-width:0.99212599;stroke-linecap:round;stroke-miterlimit:4;stroke-opacity:1;stroke-dasharray:none;marker-end:none"
         sodipodi:type="arc" />
      <path
         d="m 143.00001,37.734821 a 14.911765,14.911765 0 1 1 -29.82353,0 14.911765,14.911765 0 1 1 29.82353,0 z"
         sodipodi:ry="14.911765"
         sodipodi:rx="14.911765"
         sodipodi:cy="37.734821"
         sodipodi:cx="128.08824"
         id="path3996-9"
         style="fill:#008000;fill-opacity:1;stroke:#000000;stroke-opacity:1"
         sodipodi:type="arc"
         transform="translate(474.34758,433.9556)" />
      <path
         d="m 143.00001,37.734821 a 14.911765,14.911765 0 1 1 -29.82353,0 14.911765,14.911765 0 1 1 29.82353,0 z"
         sodipodi:ry="14.911765"
         sodipodi:rx="14.911765"
         sodipodi:cy="37.734821"
         sodipodi:cx="128.08824"
         id="path3996-3"
         style="fill:#008000;fill-opacity:1;stroke:#000000;stroke-opacity:1"
         sodipodi:type="arc"
         transform="translate(494.34757,433.9556)" />
      <path
         d="m 143.00001,37.734821 a 14.911765,14.911765 0 1 1 -29.82353,0 14.911765,14.911765 0 1 1 29.82353,0 z"
         sodipodi:ry="14.911765"
         sodipodi:rx="14.911765"
         sodipodi:cy="37.734821"
         sodipodi:cx="128.08824"
         id="path3996-9-0"
         style="fill:#008000;fill-opacity:1;stroke:#000000;stroke-opacity:1"
         sodipodi:type="arc"
         transform="translate(474.34757,562.58089)" />
      <path
         d="m 143.00001,37.734821 a 14.911765,14.911765 0 1 1 -29.82353,0 14.911765,14.911765 0 1 1 29.82353,0 z"
         sodipodi:ry="14.911765"
         sodipodi:rx="14.911765"
         sodipodi:cy="37.734821"
         sodipodi:cx="128.08824"
         id="path3996-3-7"
         style="fill:#008000;fill-opacity:1;stroke:#000000;stroke-opacity:1"
         sodipodi:type="arc"
         transform="translate(494.34757,562.58089)" />
      <path
         d="m 143.00001,37.734821 a 14.911765,14.911765 0 1 1 -29.82353,0 14.911765,14.911765 0 1 1 29.82353,0 z"
         sodipodi:ry="14.911765"
         sodipodi:rx="14.911765"
         sodipodi:cy="37.734821"
         sodipodi:cx="128.08824"
         id="path3996-9-3-1"
         style="fill:#008000;fill-opacity:1;stroke:#000000;stroke-opacity:1"
         sodipodi:type="arc"
         transform="matrix(-1,0,0,1,580.25171,562.70919)" />
      <path
         d="m 143.00001,37.734821 a 14.911765,14.911765 0 1 1 -29.82353,0 14.911765,14.911765 0 1 1 29.82353,0 z"
         sodipodi:ry="14.911765"
         sodipodi:rx="14.911765"
         sodipodi:cy="37.734821"
         sodipodi:cx="128.08824"
         id="path3996-3-6-2"
         style="fill:#008000;fill-opacity:1;stroke:#000000;stroke-opacity:1"
         sodipodi:type="arc"
         transform="matrix(-1,0,0,1,560.25171,562.70919)" />
      <path
         d="m 143.00001,37.734821 a 14.911765,14.911765 0 1 1 -29.82353,0 14.911765,14.911765 0 1 1 29.82353,0 z"
         sodipodi:ry="14.911765"
         sodipodi:rx="14.911765"
         sodipodi:cy="37.734821"
         sodipodi:cx="128.08824"
         id="path3996-9-3-1-7"
         style="fill:#008000;fill-opacity:1;stroke:#000000;stroke-opacity:1"
         sodipodi:type="arc"
         transform="matrix(-1,0,0,1,577.96824,433.9556)" />
      <path
         d="m 143.00001,37.734821 a 14.911765,14.911765 0 1 1 -29.82353,0 14.911765,14.911765 0 1 1 29.82353,0 z"
         sodipodi:ry="14.911765"
         sodipodi:rx="14.911765"
         sodipodi:cy="37.734821"
         sodipodi:cx="128.08824"
         id="path3996-3-6-2-5"
         style="fill:#008000;fill-opacity:1;stroke:#000000;stroke-opacity:1"
         sodipodi:type="arc"
         transform="matrix(-1,0,0,1,560.25171,433.9556)" />
      <text
         sodipodi:linespacing="125%"
         id="text3252"
         y="579.70654"
         x="490.17972"
         style="font-size:95.62467194px;font-style:normal;font-weight:normal;line-height:125%;letter-spacing:0px;word-spacing:0px;fill:#ff7f00;fill-opacity:1;stroke:none;font-family:Sans"
         xml:space="preserve"><tspan
           id="tspan3254"
           y="579.70654"
           x="490.17972"
           sodipodi:role="line"><tspan
             id="tspan3256"
             style="font-variant:normal;font-stretch:normal;fill:#ff7f00;font-family:Serif;-inkscape-font-specification:Serif"
             y="579.70654"
             x="490.17972">Ğ</tspan></tspan></text>
      <path
         transform="translate(281.74521,562.71313)"
         sodipodi:end="4.712389"
         sodipodi:start="1.5707963"
         d="m 128.08824,52.646586 a 14.911765,14.911765 0 1 1 0,-29.82353 l 0,14.911765 z"
         sodipodi:ry="14.911765"
         sodipodi:rx="14.911765"
         sodipodi:cy="37.734821"
         sodipodi:cx="128.08824"
         id="path3996-36"
         style="fill:#ff0000;fill-opacity:1;stroke:#000000;stroke-width:0.99212599;stroke-linecap:round;stroke-miterlimit:4;stroke-opacity:1;stroke-dasharray:none;marker-end:none"
         sodipodi:type="arc" />
      <path
         transform="matrix(-1,0,0,1,772.85407,433.95166)"
         sodipodi:end="4.712389"
         sodipodi:start="1.5707963"
         d="m 128.08824,52.646586 a 14.911765,14.911765 0 1 1 0,-29.82353 l 0,14.911765 z"
         sodipodi:ry="14.911765"
         sodipodi:rx="14.911765"
         sodipodi:cy="37.734821"
         sodipodi:cx="128.08824"
         id="path3996-2"
         style="fill:#ff0000;fill-opacity:1;stroke:#000000;stroke-width:0.99212599;stroke-linecap:round;stroke-miterlimit:4;stroke-opacity:1;stroke-dasharray:none;marker-end:none"
         sodipodi:type="arc" />
      <path
         transform="matrix(-1,0,0,1,772.85407,562.71313)"
         sodipodi:end="4.712389"
         sodipodi:start="1.5707963"
         d="m 128.08824,52.646586 a 14.911765,14.911765 0 1 1 0,-29.82353 l 0,14.911765 z"
         sodipodi:ry="14.911765"
         sodipodi:rx="14.911765"
         sodipodi:cy="37.734821"
         sodipodi:cx="128.08824"
         id="path3996-2-6"
         style="fill:#ff0000;fill-opacity:1;stroke:#000000;stroke-width:0.99212599;stroke-linecap:round;stroke-miterlimit:4;stroke-opacity:1;stroke-dasharray:none;marker-end:none"
         sodipodi:type="arc" />
    </g>
    <g
       id="g3132">
      <rect
         id="rect3186-4"
         style="fill:#008000;fill-opacity:1;stroke:none"
         height="194.88188"
         width="301.18109"
         y="149.65849"
         x="35.277523" />
      <path
         transform="translate(-59.682418,145.43432)"
         sodipodi:end="4.712389"
         sodipodi:start="1.5707963"
         d="m 128.08824,52.646586 a 14.911765,14.911765 0 1 1 0,-29.82353 l 0,14.911765 z"
         sodipodi:ry="14.911765"
         sodipodi:rx="14.911765"
         sodipodi:cy="37.734821"
         sodipodi:cx="128.08824"
         id="path3996-8"
         style="fill:#ffff00;fill-opacity:1;stroke:#000000;stroke-width:0.99212599;stroke-linecap:round;stroke-miterlimit:4;stroke-opacity:1;stroke-dasharray:none;marker-end:none"
         sodipodi:type="arc" />
      <path
         d="m 143.00001,37.734821 a 14.911765,14.911765 0 1 1 -29.82353,0 14.911765,14.911765 0 1 1 29.82353,0 z"
         sodipodi:ry="14.911765"
         sodipodi:rx="14.911765"
         sodipodi:cy="37.734821"
         sodipodi:cx="128.08824"
         id="path3996-9-4"
         style="fill:#0000ff;fill-opacity:1;stroke:#000000;stroke-opacity:1"
         sodipodi:type="arc"
         transform="translate(132.91601,145.05197)" />
      <path
         d="m 143.00001,37.734821 a 14.911765,14.911765 0 1 1 -29.82353,0 14.911765,14.911765 0 1 1 29.82353,0 z"
         sodipodi:ry="14.911765"
         sodipodi:rx="14.911765"
         sodipodi:cy="37.734821"
         sodipodi:cx="128.08824"
         id="path3996-3-8"
         style="fill:#0000ff;fill-opacity:1;stroke:#000000;stroke-opacity:1"
         sodipodi:type="arc"
         transform="translate(152.916,145.05197)" />
      <path
         d="m 143.00001,37.734821 a 14.911765,14.911765 0 1 1 -29.82353,0 14.911765,14.911765 0 1 1 29.82353,0 z"
         sodipodi:ry="14.911765"
         sodipodi:rx="14.911765"
         sodipodi:cy="37.734821"
         sodipodi:cx="128.08824"
         id="path3996-9-0-0"
         style="fill:#0000ff;fill-opacity:1;stroke:#000000;stroke-opacity:1"
         sodipodi:type="arc"
         transform="translate(132.91601,273.67726)" />
      <path
         d="m 143.00001,37.734821 a 14.911765,14.911765 0 1 1 -29.82353,0 14.911765,14.911765 0 1 1 29.82353,0 z"
         sodipodi:ry="14.911765"
         sodipodi:rx="14.911765"
         sodipodi:cy="37.734821"
         sodipodi:cx="128.08824"
         id="path3996-3-7-2"
         style="fill:#0000ff;fill-opacity:1;stroke:#000000;stroke-opacity:1"
         sodipodi:type="arc"
         transform="translate(152.916,273.67726)" />
      <path
         d="m 143.00001,37.734821 a 14.911765,14.911765 0 1 1 -29.82353,0 14.911765,14.911765 0 1 1 29.82353,0 z"
         sodipodi:ry="14.911765"
         sodipodi:rx="14.911765"
         sodipodi:cy="37.734821"
         sodipodi:cx="128.08824"
         id="path3996-9-3-1-0"
         style="fill:#0000ff;fill-opacity:1;stroke:#000000;stroke-opacity:1"
         sodipodi:type="arc"
         transform="matrix(-1,0,0,1,238.82014,273.80556)" />
      <path
         d="m 143.00001,37.734821 a 14.911765,14.911765 0 1 1 -29.82353,0 14.911765,14.911765 0 1 1 29.82353,0 z"
         sodipodi:ry="14.911765"
         sodipodi:rx="14.911765"
         sodipodi:cy="37.734821"
         sodipodi:cx="128.08824"
         id="path3996-3-6-2-59"
         style="fill:#0000ff;fill-opacity:1;stroke:#000000;stroke-opacity:1"
         sodipodi:type="arc"
         transform="matrix(-1,0,0,1,218.82014,273.80556)" />
      <path
         d="m 143.00001,37.734821 a 14.911765,14.911765 0 1 1 -29.82353,0 14.911765,14.911765 0 1 1 29.82353,0 z"
         sodipodi:ry="14.911765"
         sodipodi:rx="14.911765"
         sodipodi:cy="37.734821"
         sodipodi:cx="128.08824"
         id="path3996-9-3-1-7-1"
         style="fill:#0000ff;fill-opacity:1;stroke:#000000;stroke-opacity:1"
         sodipodi:type="arc"
         transform="matrix(-1,0,0,1,236.53667,145.05197)" />
      <path
         d="m 143.00001,37.734821 a 14.911765,14.911765 0 1 1 -29.82353,0 14.911765,14.911765 0 1 1 29.82353,0 z"
         sodipodi:ry="14.911765"
         sodipodi:rx="14.911765"
         sodipodi:cy="37.734821"
         sodipodi:cx="128.08824"
         id="path3996-3-6-2-5-0"
         style="fill:#0000ff;fill-opacity:1;stroke:#000000;stroke-opacity:1"
         sodipodi:type="arc"
         transform="matrix(-1,0,0,1,218.82014,145.05197)" />
      <text
         sodipodi:linespacing="125%"
         id="text3126"
         y="290.80289"
         x="148.74814"
         style="font-size:95.62467194px;font-style:normal;font-weight:normal;line-height:125%;letter-spacing:0px;word-spacing:0px;fill:#00aa00;fill-opacity:1;stroke:none;font-family:Sans"
         xml:space="preserve"><tspan
           id="tspan3128"
           y="290.80289"
           x="148.74814"
           sodipodi:role="line"><tspan
             id="tspan3130"
             style="font-variant:normal;font-stretch:normal;fill:#00aa00;font-family:Serif;-inkscape-font-specification:Serif"
             y="290.80289"
             x="148.74814">Ğ</tspan></tspan></text>
      <path
         transform="translate(-59.686355,273.8095)"
         sodipodi:end="4.712389"
         sodipodi:start="1.5707963"
         d="m 128.08824,52.646586 a 14.911765,14.911765 0 1 1 0,-29.82353 l 0,14.911765 z"
         sodipodi:ry="14.911765"
         sodipodi:rx="14.911765"
         sodipodi:cy="37.734821"
         sodipodi:cx="128.08824"
         id="path3996-36-9"
         style="fill:#ffff00;fill-opacity:1;stroke:#000000;stroke-width:0.99212599;stroke-linecap:round;stroke-miterlimit:4;stroke-opacity:1;stroke-dasharray:none;marker-end:none"
         sodipodi:type="arc" />
      <path
         transform="matrix(-1,0,0,1,431.4225,145.04803)"
         sodipodi:end="4.712389"
         sodipodi:start="1.5707963"
         d="m 128.08824,52.646586 a 14.911765,14.911765 0 1 1 0,-29.82353 l 0,14.911765 z"
         sodipodi:ry="14.911765"
         sodipodi:rx="14.911765"
         sodipodi:cy="37.734821"
         sodipodi:cx="128.08824"
         id="path3996-2-9"
         style="fill:#ffff00;fill-opacity:1;stroke:#000000;stroke-width:0.99212599;stroke-linecap:round;stroke-miterlimit:4;stroke-opacity:1;stroke-dasharray:none;marker-end:none"
         sodipodi:type="arc" />
      <path
         transform="matrix(-1,0,0,1,431.4225,273.8095)"
         sodipodi:end="4.712389"
         sodipodi:start="1.5707963"
         d="m 128.08824,52.646586 a 14.911765,14.911765 0 1 1 0,-29.82353 l 0,14.911765 z"
         sodipodi:ry="14.911765"
         sodipodi:rx="14.911765"
         sodipodi:cy="37.734821"
         sodipodi:cx="128.08824"
         id="path3996-2-6-7"
         style="fill:#ffff00;fill-opacity:1;stroke:#000000;stroke-width:0.99212599;stroke-linecap:round;stroke-miterlimit:4;stroke-opacity:1;stroke-dasharray:none;marker-end:none"
         sodipodi:type="arc" />
    </g>
    <g
       id="g3216">
      <rect
         id="rect3186-2"
         style="fill:#ff0000;fill-opacity:1;stroke:none"
         height="194.88188"
         width="301.18109"
         y="149.65848"
         x="716.12036" />
      <path
         transform="translate(621.1604,145.43431)"
         sodipodi:end="4.712389"
         sodipodi:start="1.5707963"
         d="m 128.08824,52.646586 a 14.911765,14.911765 0 1 1 0,-29.82353 l 0,14.911765 z"
         sodipodi:ry="14.911765"
         sodipodi:rx="14.911765"
         sodipodi:cy="37.734821"
         sodipodi:cx="128.08824"
         id="path3996-7"
         style="fill:#0000ff;fill-opacity:1;stroke:#000000;stroke-width:0.99212599;stroke-linecap:round;stroke-miterlimit:4;stroke-opacity:1;stroke-dasharray:none;marker-end:none"
         sodipodi:type="arc" />
      <path
         d="m 143.00001,37.734821 a 14.911765,14.911765 0 1 1 -29.82353,0 14.911765,14.911765 0 1 1 29.82353,0 z"
         sodipodi:ry="14.911765"
         sodipodi:rx="14.911765"
         sodipodi:cy="37.734821"
         sodipodi:cx="128.08824"
         id="path3996-9-2"
         style="fill:#ffff00;fill-opacity:1;stroke:#000000;stroke-opacity:1"
         sodipodi:type="arc"
         transform="translate(813.75883,145.05196)" />
      <path
         d="m 143.00001,37.734821 a 14.911765,14.911765 0 1 1 -29.82353,0 14.911765,14.911765 0 1 1 29.82353,0 z"
         sodipodi:ry="14.911765"
         sodipodi:rx="14.911765"
         sodipodi:cy="37.734821"
         sodipodi:cx="128.08824"
         id="path3996-3-77"
         style="fill:#ffff00;fill-opacity:1;stroke:#000000;stroke-opacity:1"
         sodipodi:type="arc"
         transform="translate(833.75882,145.05196)" />
      <path
         d="m 143.00001,37.734821 a 14.911765,14.911765 0 1 1 -29.82353,0 14.911765,14.911765 0 1 1 29.82353,0 z"
         sodipodi:ry="14.911765"
         sodipodi:rx="14.911765"
         sodipodi:cy="37.734821"
         sodipodi:cx="128.08824"
         id="path3996-9-0-4"
         style="fill:#ffff00;fill-opacity:1;stroke:#000000;stroke-opacity:1"
         sodipodi:type="arc"
         transform="translate(813.75882,273.67725)" />
      <path
         d="m 143.00001,37.734821 a 14.911765,14.911765 0 1 1 -29.82353,0 14.911765,14.911765 0 1 1 29.82353,0 z"
         sodipodi:ry="14.911765"
         sodipodi:rx="14.911765"
         sodipodi:cy="37.734821"
         sodipodi:cx="128.08824"
         id="path3996-3-7-8"
         style="fill:#ffff00;fill-opacity:1;stroke:#000000;stroke-opacity:1"
         sodipodi:type="arc"
         transform="translate(833.75882,273.67725)" />
      <path
         d="m 143.00001,37.734821 a 14.911765,14.911765 0 1 1 -29.82353,0 14.911765,14.911765 0 1 1 29.82353,0 z"
         sodipodi:ry="14.911765"
         sodipodi:rx="14.911765"
         sodipodi:cy="37.734821"
         sodipodi:cx="128.08824"
         id="path3996-9-3-1-8"
         style="fill:#ffff00;fill-opacity:1;stroke:#000000;stroke-opacity:1"
         sodipodi:type="arc"
         transform="matrix(-1,0,0,1,919.66296,273.80555)" />
      <path
         d="m 143.00001,37.734821 a 14.911765,14.911765 0 1 1 -29.82353,0 14.911765,14.911765 0 1 1 29.82353,0 z"
         sodipodi:ry="14.911765"
         sodipodi:rx="14.911765"
         sodipodi:cy="37.734821"
         sodipodi:cx="128.08824"
         id="path3996-3-6-2-4"
         style="fill:#ffff00;fill-opacity:1;stroke:#000000;stroke-opacity:1"
         sodipodi:type="arc"
         transform="matrix(-1,0,0,1,899.66296,273.80555)" />
      <path
         d="m 143.00001,37.734821 a 14.911765,14.911765 0 1 1 -29.82353,0 14.911765,14.911765 0 1 1 29.82353,0 z"
         sodipodi:ry="14.911765"
         sodipodi:rx="14.911765"
         sodipodi:cy="37.734821"
         sodipodi:cx="128.08824"
         id="path3996-9-3-1-7-3"
         style="fill:#ffff00;fill-opacity:1;stroke:#000000;stroke-opacity:1"
         sodipodi:type="arc"
         transform="matrix(-1,0,0,1,917.37949,145.05196)" />
      <path
         d="m 143.00001,37.734821 a 14.911765,14.911765 0 1 1 -29.82353,0 14.911765,14.911765 0 1 1 29.82353,0 z"
         sodipodi:ry="14.911765"
         sodipodi:rx="14.911765"
         sodipodi:cy="37.734821"
         sodipodi:cx="128.08824"
         id="path3996-3-6-2-5-5"
         style="fill:#ffff00;fill-opacity:1;stroke:#000000;stroke-opacity:1"
         sodipodi:type="arc"
         transform="matrix(-1,0,0,1,899.66296,145.05196)" />
      <text
         sodipodi:linespacing="125%"
         id="text3210"
         y="290.80289"
         x="829.59094"
         style="font-size:95.62467194px;font-style:normal;font-weight:normal;line-height:125%;letter-spacing:0px;word-spacing:0px;fill:#ff5555;fill-opacity:1;stroke:none;font-family:Sans"
         xml:space="preserve"><tspan
           id="tspan3212"
           y="290.80289"
           x="829.59094"
           sodipodi:role="line"><tspan
             id="tspan3214"
             style="font-variant:normal;font-stretch:normal;fill:#ff5555;font-family:Serif;-inkscape-font-specification:Serif"
             y="290.80289"
             x="829.59094">Ğ</tspan></tspan></text>
      <path
         transform="translate(621.15646,273.80949)"
         sodipodi:end="4.712389"
         sodipodi:start="1.5707963"
         d="m 128.08824,52.646586 a 14.911765,14.911765 0 1 1 0,-29.82353 l 0,14.911765 z"
         sodipodi:ry="14.911765"
         sodipodi:rx="14.911765"
         sodipodi:cy="37.734821"
         sodipodi:cx="128.08824"
         id="path3996-36-5"
         style="fill:#0000ff;fill-opacity:1;stroke:#000000;stroke-width:0.99212599;stroke-linecap:round;stroke-miterlimit:4;stroke-opacity:1;stroke-dasharray:none;marker-end:none"
         sodipodi:type="arc" />
      <path
         transform="matrix(-1,0,0,1,1112.2653,145.04802)"
         sodipodi:end="4.712389"
         sodipodi:start="1.5707963"
         d="m 128.08824,52.646586 a 14.911765,14.911765 0 1 1 0,-29.82353 l 0,14.911765 z"
         sodipodi:ry="14.911765"
         sodipodi:rx="14.911765"
         sodipodi:cy="37.734821"
         sodipodi:cx="128.08824"
         id="path3996-2-0"
         style="fill:#0000ff;fill-opacity:1;stroke:#000000;stroke-width:0.99212599;stroke-linecap:round;stroke-miterlimit:4;stroke-opacity:1;stroke-dasharray:none;marker-end:none"
         sodipodi:type="arc" />
      <path
         transform="matrix(-1,0,0,1,1112.2653,273.80949)"
         sodipodi:end="4.712389"
         sodipodi:start="1.5707963"
         d="m 128.08824,52.646586 a 14.911765,14.911765 0 1 1 0,-29.82353 l 0,14.911765 z"
         sodipodi:ry="14.911765"
         sodipodi:rx="14.911765"
         sodipodi:cy="37.734821"
         sodipodi:cx="128.08824"
         id="path3996-2-6-0"
         style="fill:#0000ff;fill-opacity:1;stroke:#000000;stroke-width:0.99212599;stroke-linecap:round;stroke-miterlimit:4;stroke-opacity:1;stroke-dasharray:none;marker-end:none"
         sodipodi:type="arc" />
    </g>
    <g
       id="g3174">
      <rect
         id="rect3186-9"
         style="fill:#0000ff;fill-opacity:1;stroke:none"
         height="194.88188"
         width="301.18109"
         y="150.66864"
         x="375.69894" />
      <path
         transform="translate(280.73899,146.44447)"
         sodipodi:end="4.712389"
         sodipodi:start="1.5707963"
         d="m 128.08824,52.646586 a 14.911765,14.911765 0 1 1 0,-29.82353 l 0,14.911765 z"
         sodipodi:ry="14.911765"
         sodipodi:rx="14.911765"
         sodipodi:cy="37.734821"
         sodipodi:cx="128.08824"
         id="path3996-1"
         style="fill:#008000;fill-opacity:1;stroke:#000000;stroke-width:0.99212599;stroke-linecap:round;stroke-miterlimit:4;stroke-opacity:1;stroke-dasharray:none;marker-end:none"
         sodipodi:type="arc" />
      <path
         d="m 143.00001,37.734821 a 14.911765,14.911765 0 1 1 -29.82353,0 14.911765,14.911765 0 1 1 29.82353,0 z"
         sodipodi:ry="14.911765"
         sodipodi:rx="14.911765"
         sodipodi:cy="37.734821"
         sodipodi:cx="128.08824"
         id="path3996-9-9"
         style="fill:#ff0000;fill-opacity:1;stroke:#000000;stroke-opacity:1"
         sodipodi:type="arc"
         transform="translate(473.33742,146.06212)" />
      <path
         d="m 143.00001,37.734821 a 14.911765,14.911765 0 1 1 -29.82353,0 14.911765,14.911765 0 1 1 29.82353,0 z"
         sodipodi:ry="14.911765"
         sodipodi:rx="14.911765"
         sodipodi:cy="37.734821"
         sodipodi:cx="128.08824"
         id="path3996-3-1"
         style="fill:#ff0000;fill-opacity:1;stroke:#000000;stroke-opacity:1"
         sodipodi:type="arc"
         transform="translate(493.33741,146.06212)" />
      <path
         d="m 143.00001,37.734821 a 14.911765,14.911765 0 1 1 -29.82353,0 14.911765,14.911765 0 1 1 29.82353,0 z"
         sodipodi:ry="14.911765"
         sodipodi:rx="14.911765"
         sodipodi:cy="37.734821"
         sodipodi:cx="128.08824"
         id="path3996-9-0-08"
         style="fill:#ff0000;fill-opacity:1;stroke:#000000;stroke-opacity:1"
         sodipodi:type="arc"
         transform="translate(473.33741,274.68741)" />
      <path
         d="m 143.00001,37.734821 a 14.911765,14.911765 0 1 1 -29.82353,0 14.911765,14.911765 0 1 1 29.82353,0 z"
         sodipodi:ry="14.911765"
         sodipodi:rx="14.911765"
         sodipodi:cy="37.734821"
         sodipodi:cx="128.08824"
         id="path3996-3-7-1"
         style="fill:#ff0000;fill-opacity:1;stroke:#000000;stroke-opacity:1"
         sodipodi:type="arc"
         transform="translate(493.33741,274.68741)" />
      <path
         d="m 143.00001,37.734821 a 14.911765,14.911765 0 1 1 -29.82353,0 14.911765,14.911765 0 1 1 29.82353,0 z"
         sodipodi:ry="14.911765"
         sodipodi:rx="14.911765"
         sodipodi:cy="37.734821"
         sodipodi:cx="128.08824"
         id="path3996-9-3-1-78"
         style="fill:#ff0000;fill-opacity:1;stroke:#000000;stroke-opacity:1"
         sodipodi:type="arc"
         transform="matrix(-1,0,0,1,579.24155,274.81571)" />
      <path
         d="m 143.00001,37.734821 a 14.911765,14.911765 0 1 1 -29.82353,0 14.911765,14.911765 0 1 1 29.82353,0 z"
         sodipodi:ry="14.911765"
         sodipodi:rx="14.911765"
         sodipodi:cy="37.734821"
         sodipodi:cx="128.08824"
         id="path3996-3-6-2-2"
         style="fill:#ff0000;fill-opacity:1;stroke:#000000;stroke-opacity:1"
         sodipodi:type="arc"
         transform="matrix(-1,0,0,1,559.24155,274.81571)" />
      <path
         d="m 143.00001,37.734821 a 14.911765,14.911765 0 1 1 -29.82353,0 14.911765,14.911765 0 1 1 29.82353,0 z"
         sodipodi:ry="14.911765"
         sodipodi:rx="14.911765"
         sodipodi:cy="37.734821"
         sodipodi:cx="128.08824"
         id="path3996-9-3-1-7-0"
         style="fill:#ff0000;fill-opacity:1;stroke:#000000;stroke-opacity:1"
         sodipodi:type="arc"
         transform="matrix(-1,0,0,1,576.95808,146.06212)" />
      <path
         d="m 143.00001,37.734821 a 14.911765,14.911765 0 1 1 -29.82353,0 14.911765,14.911765 0 1 1 29.82353,0 z"
         sodipodi:ry="14.911765"
         sodipodi:rx="14.911765"
         sodipodi:cy="37.734821"
         sodipodi:cx="128.08824"
         id="path3996-3-6-2-5-57"
         style="fill:#ff0000;fill-opacity:1;stroke:#000000;stroke-opacity:1"
         sodipodi:type="arc"
         transform="matrix(-1,0,0,1,559.24155,146.06212)" />
      <text
         sodipodi:linespacing="125%"
         id="text3168"
         y="291.81305"
         x="489.16956"
         style="font-size:95.62467194px;font-style:normal;font-weight:normal;line-height:125%;letter-spacing:0px;word-spacing:0px;fill:#007fff;fill-opacity:1;stroke:none;font-family:Sans"
         xml:space="preserve"><tspan
           id="tspan3170"
           y="291.81305"
           x="489.16956"
           sodipodi:role="line"><tspan
             id="tspan3172"
             style="font-variant:normal;font-stretch:normal;fill:#007fff;font-family:Serif;-inkscape-font-specification:Serif"
             y="291.81305"
             x="489.16956">Ğ</tspan></tspan></text>
      <path
         transform="translate(280.73505,274.81965)"
         sodipodi:end="4.712389"
         sodipodi:start="1.5707963"
         d="m 128.08824,52.646586 a 14.911765,14.911765 0 1 1 0,-29.82353 l 0,14.911765 z"
         sodipodi:ry="14.911765"
         sodipodi:rx="14.911765"
         sodipodi:cy="37.734821"
         sodipodi:cx="128.08824"
         id="path3996-36-8"
         style="fill:#008000;fill-opacity:1;stroke:#000000;stroke-width:0.99212599;stroke-linecap:round;stroke-miterlimit:4;stroke-opacity:1;stroke-dasharray:none;marker-end:none"
         sodipodi:type="arc" />
      <path
         transform="matrix(-1,0,0,1,771.84391,146.05818)"
         sodipodi:end="4.712389"
         sodipodi:start="1.5707963"
         d="m 128.08824,52.646586 a 14.911765,14.911765 0 1 1 0,-29.82353 l 0,14.911765 z"
         sodipodi:ry="14.911765"
         sodipodi:rx="14.911765"
         sodipodi:cy="37.734821"
         sodipodi:cx="128.08824"
         id="path3996-2-4"
         style="fill:#008000;fill-opacity:1;stroke:#000000;stroke-width:0.99212599;stroke-linecap:round;stroke-miterlimit:4;stroke-opacity:1;stroke-dasharray:none;marker-end:none"
         sodipodi:type="arc" />
      <path
         transform="matrix(-1,0,0,1,771.84391,274.81965)"
         sodipodi:end="4.712389"
         sodipodi:start="1.5707963"
         d="m 128.08824,52.646586 a 14.911765,14.911765 0 1 1 0,-29.82353 l 0,14.911765 z"
         sodipodi:ry="14.911765"
         sodipodi:rx="14.911765"
         sodipodi:cy="37.734821"
         sodipodi:cx="128.08824"
         id="path3996-2-6-02"
         style="fill:#008000;fill-opacity:1;stroke:#000000;stroke-width:0.99212599;stroke-linecap:round;stroke-miterlimit:4;stroke-opacity:1;stroke-dasharray:none;marker-end:none"
         sodipodi:type="arc" />
    </g>
  </g>
</svg>
